<svg width="334" height="81" viewBox="0 0 334 81" fill="none" xmlns="http://www.w3.org/2000/svg">
<g clip-path="url(#clip0_3_2)">
<path d="M85.6462 81C81.2637 81 77.346 80.3235 73.8931 78.9704C70.4403 77.5843 67.5186 75.6866 65.1281 73.2775C62.7709 70.8683 60.9614 68.0961 59.6998 64.9609C58.4714 61.8257 57.8572 58.5089 57.8572 55.0107V53.1296C57.8572 49.2023 58.405 45.572 59.5006 42.2388C60.5962 38.8726 62.2231 35.9354 64.3811 33.4272C66.5392 30.919 69.245 28.9719 72.4987 27.5858C75.7524 26.1667 79.5372 25.4571 83.8533 25.4571C87.6714 25.4571 91.0911 26.0677 94.1124 27.2888C97.1336 28.5099 99.6901 30.259 101.782 32.5361C103.907 34.8133 105.517 37.569 106.612 40.8032C107.741 44.0374 108.306 47.6677 108.306 51.694V58.4759H64.2815V48.0307H91.9211V46.7436C91.9543 44.9615 91.6389 43.4434 90.9749 42.1893C90.3441 40.9352 89.4145 39.9782 88.186 39.3181C86.9576 38.6581 85.4636 38.328 83.7039 38.328C81.8779 38.328 80.3673 38.7241 79.172 39.5161C78.01 40.3082 77.097 41.3973 76.433 42.7834C75.8022 44.1364 75.354 45.7041 75.0884 47.4862C74.8227 49.2683 74.6899 51.1494 74.6899 53.1296V55.0107C74.6899 56.9908 74.9556 58.7895 75.4868 60.4066C76.0512 62.0237 76.848 63.4098 77.8772 64.5649C78.9396 65.6869 80.2013 66.5615 81.6621 67.1885C83.1561 67.8156 84.8494 68.1291 86.7418 68.1291C89.0327 68.1291 91.2903 67.7001 93.5148 66.842C95.7392 65.984 97.6482 64.5649 99.2419 62.5847L106.861 71.5944C105.766 73.1455 104.205 74.6471 102.18 76.0992C100.188 77.5513 97.7976 78.7393 95.0088 79.6634C92.2199 80.5545 89.0991 81 85.6462 81Z" fill="#141414"/>
<path d="M132.061 37.7835V80.0099H115.278V26.4472H123.146L127.529 31.6887L132.061 37.7835ZM130.019 51.3969L126.184 51.496C126.184 47.7337 126.632 44.2685 127.529 41.1002C128.425 37.932 129.753 35.1763 131.513 32.8332C133.273 30.49 135.431 28.6749 137.987 27.3878C140.577 26.1007 143.565 25.4571 146.951 25.4571C149.309 25.4571 151.45 25.8202 153.376 26.5462C155.301 27.2393 156.961 28.3448 158.356 29.863C159.75 31.3481 160.813 33.2952 161.543 35.7044C162.307 38.0805 162.688 40.9352 162.688 44.2685V80.0099H145.905V46.3971C145.905 44.1199 145.64 42.4038 145.109 41.2487C144.611 40.0937 143.88 39.3181 142.917 38.9221C141.955 38.5261 140.776 38.328 139.382 38.328C137.921 38.328 136.609 38.6581 135.447 39.3181C134.285 39.9782 133.289 40.9022 132.459 42.0903C131.662 43.2454 131.048 44.615 130.617 46.1991C130.218 47.7832 130.019 49.5158 130.019 51.3969ZM160.796 51.3969L156.115 51.496C156.115 47.7337 156.53 44.2685 157.36 41.1002C158.223 37.932 159.501 35.1763 161.194 32.8332C162.921 30.49 165.062 28.6749 167.619 27.3878C170.175 26.1007 173.147 25.4571 176.533 25.4571C178.99 25.4571 181.248 25.8202 183.306 26.5462C185.365 27.2723 187.141 28.4439 188.635 30.061C190.129 31.6781 191.291 33.8232 192.121 36.4964C192.951 39.1366 193.366 42.4038 193.366 46.2981V80.0099H176.533V46.2981C176.533 44.0869 176.268 42.4203 175.736 41.2982C175.238 40.1432 174.508 39.3676 173.545 38.9716C172.582 38.5426 171.437 38.328 170.109 38.328C168.515 38.328 167.137 38.6581 165.975 39.3181C164.813 39.9782 163.834 40.9022 163.037 42.0903C162.273 43.2454 161.709 44.615 161.344 46.1991C160.979 47.7832 160.796 49.5158 160.796 51.3969Z" fill="#141414"/>
<path d="M230.966 66.545V44.4665C230.966 42.9484 230.75 41.6448 230.318 40.5557C229.887 39.4666 229.206 38.6251 228.277 38.031C227.347 37.404 226.102 37.0905 224.541 37.0905C223.28 37.0905 222.201 37.305 221.304 37.734C220.408 38.163 219.727 38.8066 219.262 39.6646C218.798 40.5227 218.565 41.6118 218.565 42.9319H201.782C201.782 40.4567 202.33 38.163 203.426 36.0509C204.555 33.9057 206.148 32.0411 208.207 30.457C210.298 28.8729 212.788 27.6518 215.677 26.7937C218.598 25.9027 221.852 25.4571 225.438 25.4571C229.721 25.4571 233.539 26.1667 236.892 27.5858C240.279 29.0049 242.951 31.1335 244.91 33.9717C246.869 36.7769 247.848 40.3082 247.848 44.5655C247.848 44.5655 247.848 62.9973 247.848 66.4955C247.848 69.9937 247.848 74.5229 247.848 74.5229V76.9746V80.0099H233.306C233.297 77.981 233.297 72.9492 233.297 72.9492C233.297 72.9492 230.966 69.0862 230.966 66.545ZM233.008 47.2882L233.107 56.1988H225.687C224.126 56.1988 222.798 56.4133 221.703 56.8423C220.64 57.2714 219.777 57.8654 219.113 58.6245C218.482 59.3505 218.017 60.1756 217.719 61.0996C217.453 62.0237 217.32 62.9973 217.32 64.0203C217.32 65.0104 217.553 65.9015 218.017 66.6935C218.515 67.4526 219.179 68.0466 220.01 68.4756C220.84 68.9047 221.769 69.1192 222.798 69.1192C224.658 69.1192 226.235 68.7727 227.529 68.0796C228.857 67.3536 229.87 66.479 230.567 65.4559C231.265 64.4329 231.613 63.4758 231.613 62.5847L235.298 69.4162C234.634 70.7363 233.871 72.0729 233.008 73.426C232.178 74.7791 231.132 76.0332 229.87 77.1882C228.642 78.3103 227.131 79.2344 225.338 79.9604C223.545 80.6535 221.371 81 218.814 81C215.494 81 212.44 80.3235 209.651 78.9704C206.895 77.6173 204.687 75.7361 203.027 73.327C201.367 70.8848 200.537 68.0796 200.537 64.9114C200.537 62.1392 201.035 59.664 202.031 57.4859C203.061 55.3077 204.604 53.4596 206.663 51.9415C208.721 50.4234 211.344 49.2683 214.531 48.4762C217.719 47.6842 221.47 47.2882 225.786 47.2882H233.008Z" fill="#141414"/>
<path d="M273.645 37.8825V80.0099H256.862V26.4472H263.672L267.977 31.6887L273.645 37.8825ZM271.653 51.3969L267.719 51.496C267.719 47.4037 268.217 43.7569 269.213 40.5557C270.209 37.3215 271.62 34.5823 273.446 32.3381C275.272 30.094 277.447 28.3943 279.97 27.2393C282.526 26.0512 285.365 25.4571 288.486 25.4571C290.976 25.4571 293.25 25.8202 295.309 26.5462C297.4 27.2723 299.193 28.4439 300.687 30.061C302.214 31.6781 303.377 33.8232 304.173 36.4964C305.003 39.1366 305.418 42.4038 305.418 46.2981V80.0099H288.536V46.2486C288.536 44.1034 288.237 42.4698 287.639 41.3477C287.042 40.1927 286.179 39.4006 285.05 38.9716C283.921 38.5426 282.543 38.328 280.916 38.328C279.19 38.328 277.729 38.6581 276.534 39.3181C275.339 39.9782 274.376 40.9022 273.645 42.0903C272.948 43.2454 272.433 44.615 272.101 46.1991C271.803 47.7832 271.653 49.5158 271.653 51.3969Z" fill="#141414"/>
<path d="M332.46 48.587V80.0099H315.628V48.587H332.46ZM314.632 34.7755C314.632 32.3994 315.495 30.4522 317.221 28.9341C318.948 27.416 321.189 26.657 323.944 26.657C326.7 26.657 328.941 27.416 330.668 28.9341C332.394 30.4522 333.257 32.3994 333.257 34.7755C333.257 37.1517 332.394 39.0988 330.668 40.6169C328.941 42.135 326.7 42.8941 323.944 42.8941C321.189 42.8941 318.948 42.135 317.221 40.6169C315.495 39.0988 314.632 37.1517 314.632 34.7755Z" fill="#141414"/>
<path d="M19.7188 37.8118H39.517V58.9628C39.517 60.6565 39.7129 61.9759 40.1045 62.9212C40.4962 63.8271 41.162 64.477 42.102 64.8709C43.0811 65.2254 44.3736 65.4026 45.9794 65.4026C47.1152 65.4026 48.0552 65.3829 48.7993 65.3435C49.5435 65.2648 50.2485 65.1663 50.9143 65.0481V79.2866C49.2302 79.8381 47.4677 80.2516 45.6269 80.5274C43.7861 80.8425 41.8278 81 39.752 81C35.5221 81 31.8993 80.3304 28.8835 78.9912C25.907 77.6521 23.6353 75.5449 22.0687 72.6696C20.5021 69.7943 19.7188 66.0525 19.7188 61.4442V37.8118Z" fill="#141414"/>
<path d="M0 37.8118H15.1697V21.2101V0H0V37.8118Z" fill="#141414"/>
<path d="M19.7188 17.0153H39.517V8.50766L35.3459 4.72648L29.6179 0H19.7188V17.0153Z" fill="#141414"/>
<path d="M19.7188 37.8118H39.517V21.2101H15.1697V37.8118H19.7188Z" fill="#141414"/>
<path d="M39.517 21.2101V37.8118H53.2286V21.2101H39.517Z" fill="#141414"/>
<path d="M19.7188 17.0153H39.517V8.50766L35.3459 4.72648L29.6179 0H19.7188V17.0153Z" fill="#00ADE6"/>
</g>
<defs>
<clipPath id="clip0_3_2">
<rect width="333.26" height="81" fill="white"/>
</clipPath>
</defs>
</svg>
