<svg width="342" height="342" viewBox="0 0 342 342" fill="none" xmlns="http://www.w3.org/2000/svg">
<g clip-path="url(#clip0_3_2)">
<path d="M206.868 99.4731H135.192C133.559 99.4751 131.993 100.126 130.838 101.282C129.683 102.439 129.033 104.007 129.031 105.642V265.157L128.21 265.408L110.627 270.8C109.793 271.054 108.893 270.967 108.124 270.558C107.355 270.148 106.779 269.45 106.524 268.616L54.222 97.5442C53.9675 96.7098 54.0542 95.8083 54.4632 95.0379C54.8721 94.2674 55.5698 93.6911 56.403 93.4356L83.4985 85.1277L162.05 61.0514L189.145 52.7436C189.557 52.6165 189.991 52.5721 190.42 52.6129C190.85 52.6537 191.267 52.7789 191.648 52.9814C192.029 53.1839 192.367 53.4596 192.641 53.7928C192.916 54.1261 193.122 54.5102 193.248 54.9234L206.617 98.6506L206.868 99.4731Z" fill="#F2F2F2"/>
<path d="M222.508 98.6508L206.396 45.9495C206.127 45.0714 205.689 44.2548 205.106 43.5464C204.523 42.8379 203.805 42.2515 202.996 41.8207C202.186 41.3899 201.299 41.123 200.387 41.0355C199.474 40.9479 198.553 41.0413 197.676 41.3103L159.581 52.9865L81.0344 77.0669L42.9397 88.7472C41.1701 89.2914 39.6883 90.5164 38.8197 92.1534C37.951 93.7904 37.7665 95.7056 38.3066 97.4787L93.3766 277.59C93.8153 279.021 94.7007 280.274 95.9026 281.165C97.1046 282.055 98.5599 282.536 100.055 282.538C100.747 282.538 101.435 282.434 102.096 282.229L128.21 274.226L129.032 273.971V273.111L128.21 273.362L101.854 281.444C100.292 281.921 98.6048 281.758 97.1626 280.991C95.7204 280.223 94.641 278.915 94.1611 277.352L39.0954 97.236C38.8576 96.4616 38.7748 95.6477 38.8515 94.8411C38.9283 94.0346 39.1632 93.251 39.5428 92.5355C39.9224 91.8199 40.4392 91.1864 41.0637 90.6712C41.6882 90.1559 42.408 89.7691 43.182 89.5328L81.2767 77.8524L159.824 53.7762L197.918 42.0958C198.505 41.9164 199.116 41.825 199.73 41.8244C201.047 41.8273 202.328 42.2526 203.387 43.0378C204.445 43.8231 205.225 44.927 205.611 46.1881L221.65 98.6508L221.905 99.4734H222.759L222.508 98.6508Z" fill="#DBDBDB"/>
<path d="M88.388 93.57C87.5964 93.5695 86.8258 93.3149 86.1892 92.8436C85.5527 92.3724 85.0837 91.7092 84.8511 90.9515L79.5608 73.6483C79.4187 73.1835 79.3693 72.6952 79.4157 72.2113C79.462 71.7274 79.603 71.2574 79.8308 70.8281C80.0585 70.3989 80.3685 70.0187 80.743 69.7094C81.1175 69.4001 81.5492 69.1677 82.0134 69.0254L154.276 46.8724C155.213 46.5859 156.226 46.6836 157.091 47.144C157.957 47.6044 158.605 48.3899 158.893 49.328L164.183 66.6314C164.469 67.5701 164.371 68.5841 163.911 69.4507C163.452 70.3174 162.667 70.9661 161.731 71.2545L89.468 93.4076C89.118 93.5151 88.754 93.5699 88.388 93.57V93.57Z" fill="#00ADE5"/>
<path d="M116.101 59.4889C120.637 59.4889 124.315 55.8062 124.315 51.2633C124.315 46.7205 120.637 43.0378 116.101 43.0378C111.564 43.0378 107.886 46.7205 107.886 51.2633C107.886 55.8062 111.564 59.4889 116.101 59.4889Z" fill="#00ADE5"/>
<path d="M116.101 56.472C118.974 56.472 121.302 54.14 121.302 51.2633C121.302 48.3867 118.974 46.0546 116.101 46.0546C113.228 46.0546 110.899 48.3867 110.899 51.2633C110.899 54.14 113.228 56.472 116.101 56.472Z" fill="white"/>
<path d="M285.518 280.436H146.693C145.767 280.435 144.88 280.066 144.225 279.411C143.571 278.756 143.203 277.867 143.202 276.94V110.372C143.203 109.445 143.571 108.557 144.225 107.901C144.88 107.246 145.767 106.877 146.693 106.876H285.518C286.443 106.877 287.33 107.246 287.985 107.901C288.639 108.557 289.008 109.445 289.009 110.372V276.94C289.008 277.867 288.639 278.756 287.985 279.411C287.33 280.066 286.443 280.435 285.518 280.436V280.436Z" fill="#E6E6E6"/>
<path d="M221.65 98.6506H135.192C133.341 98.6532 131.567 99.3907 130.258 100.701C128.949 102.012 128.213 103.789 128.21 105.642V273.362L129.031 273.111V105.642C129.033 104.007 129.683 102.439 130.838 101.282C131.993 100.126 133.559 99.4751 135.192 99.4731H221.904L221.65 98.6506ZM297.018 98.6506H135.192C133.341 98.6532 131.567 99.3907 130.258 100.701C128.949 102.012 128.213 103.789 128.21 105.642V294.008C128.213 295.862 128.949 297.639 130.258 298.949C131.567 300.26 133.341 300.997 135.192 301H297.018C298.869 300.997 300.643 300.26 301.952 298.949C303.261 297.639 303.997 295.862 304 294.008V105.642C303.997 103.789 303.261 102.012 301.952 100.701C300.643 99.3907 298.869 98.6532 297.018 98.6506V98.6506ZM303.179 294.008C303.177 295.644 302.527 297.212 301.372 298.368C300.217 299.525 298.651 300.175 297.018 300.177H135.192C133.559 300.175 131.993 299.525 130.838 298.368C129.683 297.212 129.033 295.644 129.031 294.008V105.642C129.033 104.007 129.683 102.439 130.838 101.282C131.993 100.126 133.559 99.4751 135.192 99.4731H297.018C298.651 99.4751 300.217 100.126 301.372 101.282C302.527 102.439 303.177 104.007 303.179 105.642V294.008Z" fill="#DBDBDB"/>
<path d="M253.892 116.747H178.318C177.338 116.746 176.399 116.355 175.706 115.662C175.013 114.968 174.623 114.027 174.622 113.045V94.9491C174.623 93.9677 175.013 93.0269 175.706 92.3329C176.399 91.639 177.338 91.2487 178.318 91.2476H253.892C254.872 91.2487 255.811 91.639 256.504 92.3329C257.197 93.0269 257.587 93.9677 257.588 94.9491V113.045C257.587 114.027 257.197 114.968 256.504 115.662C255.811 116.355 254.872 116.746 253.892 116.747V116.747Z" fill="#00ADE5"/>
<path d="M216.105 92.4814C220.642 92.4814 224.319 88.7987 224.319 84.2558C224.319 79.7129 220.642 76.0302 216.105 76.0302C211.568 76.0302 207.891 79.7129 207.891 84.2558C207.891 88.7987 211.568 92.4814 216.105 92.4814Z" fill="#00ADE5"/>
<path d="M216.105 89.266C218.868 89.266 221.108 87.0229 221.108 84.2558C221.108 81.4888 218.868 79.2457 216.105 79.2457C213.342 79.2457 211.102 81.4888 211.102 84.2558C211.102 87.0229 213.342 89.266 216.105 89.266Z" fill="white"/>
</g>
<defs>
<clipPath id="clip0_3_2">
<rect width="266" height="260" fill="white" transform="translate(38 41)"/>
</clipPath>
</defs>
</svg>
