<svg width="342" height="342" viewBox="0 0 342 342" fill="none" xmlns="http://www.w3.org/2000/svg">
<rect width="342" height="342" fill="white"/>
<path d="M287.497 250.817C289.97 255.188 287.873 269.948 287.873 269.948C287.873 269.948 274.139 264.137 271.666 259.768C270.481 257.67 270.179 255.187 270.824 252.865C271.47 250.544 273.011 248.573 275.109 247.387C277.207 246.201 279.69 245.896 282.013 246.539C284.336 247.182 286.309 248.721 287.497 250.817V250.817Z" fill="#E6F7FC"/>
<path d="M288.072 269.929L287.781 269.991C284.97 256.644 275.157 247.593 275.058 247.504L275.259 247.283C275.358 247.374 285.242 256.486 288.072 269.929Z" fill="white"/>
<path d="M309.97 255.794C306.613 261.88 287.692 270.125 287.692 270.125C287.692 270.125 284.572 249.728 287.926 243.643C289.538 240.721 292.245 238.559 295.452 237.632C298.658 236.705 302.102 237.089 305.025 238.7C307.948 240.312 310.111 243.018 311.039 246.223C311.966 249.429 311.581 252.871 309.97 255.794Z" fill="#E6F7FC"/>
<path d="M287.859 270.345L287.574 270.046C301.267 257.047 304.811 238.917 304.845 238.735L305.251 238.812C305.217 238.995 301.65 257.252 287.859 270.345Z" fill="white"/>
<path d="M96.2989 209.708C94.1335 209.701 91.9775 209.422 89.8815 208.879L89.4683 208.764L89.0851 208.572C75.2301 201.628 63.5413 192.456 54.3435 181.31C46.7296 172.029 40.7935 161.492 36.8021 150.172C32.029 136.619 29.7326 122.319 30.0227 107.953C30.0285 107.652 30.0335 107.419 30.0335 107.259C30.0335 100.275 33.9109 94.1483 39.9117 91.6488C44.5043 89.7358 86.2037 72.614 89.2166 71.3769C94.8906 68.5347 100.944 70.9069 101.913 71.3218C104.085 72.2098 142.634 87.9714 150.964 91.9367C159.549 96.0235 161.84 103.365 161.84 107.059C161.84 123.782 158.943 139.411 153.229 153.512C148.614 164.926 142.074 175.463 133.893 184.664C118.108 202.421 102.319 208.716 102.167 208.772C100.28 209.421 98.2943 209.738 96.2989 209.708ZM92.5859 200.514C93.9547 200.821 97.1063 201.281 99.1604 200.532C101.77 199.581 114.985 192.73 127.334 178.838C144.396 159.643 153.053 135.514 153.066 107.121C153.036 106.546 152.627 102.443 147.192 99.8557C139.023 95.9671 98.9554 79.5888 98.5516 79.4238L98.4409 79.3769C97.6012 79.0251 94.9289 78.2842 93.0868 79.2492L92.718 79.4211C92.2714 79.6044 48.0071 97.7787 43.2863 99.745C39.9839 101.121 38.8073 104.528 38.8073 107.259C38.8073 107.458 38.8021 107.748 38.7948 108.123C38.4175 127.551 42.9148 175.357 92.5859 200.514Z" fill="#3F3D56"/>
<path d="M91.0513 75.3644C91.0513 75.3644 46.3847 93.7035 41.599 95.6969C36.8132 97.6903 34.4204 102.474 34.4204 107.259C34.4204 112.043 30.8311 174.469 91.0513 204.652C91.0513 204.652 96.5169 206.164 100.664 204.652C104.81 203.14 157.453 177.625 157.453 107.059C157.453 107.059 157.453 99.883 149.078 95.8962C140.703 91.9095 100.211 75.3644 100.211 75.3644C100.211 75.3644 95.2388 73.1717 91.0513 75.3644Z" fill="#00ADE5"/>
<path opacity="0.1" d="M95.837 89.7168V187.549C95.837 187.549 50.7716 165.864 51.1704 108.853L95.837 89.7168Z" fill="black"/>
<path d="M96.4247 160.03L82.0691 141.578L90.4175 135.088L97.2149 143.824L120.177 119.592L127.856 126.865L96.4247 160.03Z" fill="white"/>
<path d="M218.399 265.575L223.724 265.574L226.257 245.043L218.398 245.043L218.399 265.575Z" fill="#FFB8B8"/>
<path d="M217.041 263.837L227.527 263.836H227.527C229.3 263.836 230.999 264.54 232.253 265.793C233.506 267.046 234.21 268.745 234.21 270.517V270.734L217.041 270.734L217.041 263.837Z" fill="#2F2E41"/>
<path d="M236.302 265.575L241.627 265.574L244.16 245.043L236.301 245.043L236.302 265.575Z" fill="#FFB8B8"/>
<path d="M234.944 263.837L245.43 263.836H245.431C247.203 263.836 248.903 264.54 250.156 265.793C251.409 267.046 252.113 268.745 252.113 270.517V270.734L234.944 270.734L234.944 263.837Z" fill="#2F2E41"/>
<path d="M226.768 193.474L228.045 258.61L217.713 257.969L210.545 216.481L208.281 188.193L226.768 193.474Z" fill="#2F2E41"/>
<path d="M244.501 182.536L245.949 259.642L233.898 259.298L231.296 213.464L226.768 196.868L208.281 188.194L211.299 167.45L238.464 167.072L244.501 182.536Z" fill="#2F2E41"/>
<path d="M223.725 113.515C228.828 113.515 232.965 109.38 232.965 104.278C232.965 99.1765 228.828 95.0409 223.725 95.0409C218.622 95.0409 214.485 99.1765 214.485 104.278C214.485 109.38 218.622 113.515 223.725 113.515Z" fill="#FFB8B8"/>
<path d="M231.389 117.406L232.805 119.55L236.578 130.11L233.559 171.221L215.827 171.599L213.563 124.453L218.305 118.527L231.389 117.406Z" fill="#CCCCCC"/>
<path d="M206.394 125.584L203.376 125.207C203.376 125.207 202.621 125.584 202.244 128.225C201.867 130.865 197.339 154.249 197.339 154.249L203.376 182.913L210.167 173.861L206.017 158.021L210.167 142.18L206.394 125.584Z" fill="#2F2E41"/>
<path d="M244.878 125.208H247.142L252.801 155.757L247.519 179.519L242.237 170.844L243.746 161.415L242.992 153.118L240.35 148.214L244.878 125.208Z" fill="#2F2E41"/>
<path d="M229.185 104.278L227.505 103.858C227.505 103.858 226.245 96.7204 223.305 97.5601C220.365 98.3998 212.805 99.2396 212.805 95.8806C212.805 92.5216 219.945 89.5826 224.145 90.0024C228.345 90.4223 233.709 91.8152 235.065 97.98C237.239 107.862 230.581 110.358 230.581 110.358L230.691 109.999C230.999 109 231.021 107.934 230.755 106.924C230.489 105.913 229.945 104.996 229.185 104.278V104.278Z" fill="#2F2E41"/>
<path d="M203.753 125.207L215.827 120.304L218.656 118.23L227.145 155.758L231.107 117.098L246.764 125.207L241.482 150.854L240.728 160.661L242.992 168.581C242.992 168.581 250.915 174.239 248.274 180.273C245.633 186.308 242.614 186.685 242.614 186.685C242.614 186.685 229.786 174.616 229.032 171.598C228.277 168.581 227.145 163.301 227.145 163.301C227.145 163.301 220.731 187.439 213.186 187.062C205.64 186.685 205.64 178.765 205.64 178.765L207.526 170.467L210.545 161.792L209.035 147.46L203.753 125.207Z" fill="#2F2E41"/>
</svg>
