<svg width="342" height="342" viewBox="0 0 342 342" fill="none" xmlns="http://www.w3.org/2000/svg">
<rect width="342" height="342" fill="white"/>
<path d="M311.301 253.446C310.332 246.151 305.736 238.991 298.732 236.67C301.547 244.165 301.612 252.41 298.916 259.948C297.865 262.852 296.394 265.972 297.427 268.881C298.069 270.692 299.617 272.069 301.342 272.924C303.066 273.778 304.976 274.177 306.862 274.568L307.235 274.871C310.17 268.118 312.27 260.742 311.301 253.446Z" fill="#F0F0F0"/>
<path d="M298.664 236.808C302.768 241.321 305.341 247.008 306.019 253.061C306.188 254.362 306.151 255.681 305.908 256.97C305.631 258.218 305.023 259.369 304.149 260.304C303.351 261.192 302.432 262.008 301.865 263.074C301.582 263.624 301.42 264.227 301.388 264.844C301.356 265.461 301.455 266.078 301.678 266.654C302.198 268.104 303.21 269.281 304.239 270.398C305.381 271.638 306.588 272.908 307.082 274.56C307.142 274.76 307.45 274.655 307.391 274.455C306.53 271.581 303.712 269.967 302.354 267.383C301.721 266.177 301.447 264.773 302.022 263.491C302.525 262.369 303.472 261.527 304.288 260.635C305.154 259.735 305.786 258.638 306.129 257.439C306.437 256.166 306.526 254.851 306.391 253.548C306.135 250.612 305.417 247.734 304.264 245.02C302.965 241.916 301.144 239.056 298.878 236.563C298.737 236.409 298.525 236.655 298.664 236.808V236.808Z" fill="white"/>
<path d="M305.916 251.099C306.919 250.848 307.8 250.249 308.402 249.41C309.003 248.571 309.286 247.546 309.199 246.519C309.181 246.311 308.856 246.329 308.874 246.537C308.957 247.494 308.693 248.449 308.132 249.229C307.57 250.009 306.747 250.564 305.812 250.792C305.608 250.842 305.714 251.149 305.916 251.099V251.099Z" fill="white"/>
<path d="M304.613 259.907C302.789 258.841 301.435 257.128 300.821 255.11C300.761 254.91 300.453 255.015 300.513 255.214C301.156 257.313 302.568 259.092 304.469 260.198C304.65 260.303 304.793 260.012 304.613 259.907V259.907Z" fill="white"/>
<path d="M302.666 242.225C302.298 242.403 301.892 242.487 301.483 242.47C301.075 242.452 300.677 242.334 300.326 242.126C300.146 242.018 300.003 242.31 300.182 242.416C300.571 242.645 301.01 242.775 301.462 242.795C301.913 242.816 302.362 242.725 302.77 242.533C302.81 242.518 302.843 242.488 302.862 242.45C302.881 242.412 302.885 242.368 302.872 242.327C302.858 242.286 302.829 242.253 302.79 242.234C302.751 242.215 302.707 242.212 302.666 242.225L302.666 242.225Z" fill="white"/>
<path d="M277.546 249.881C277.656 249.952 277.766 250.022 277.877 250.095C279.355 251.048 280.754 252.119 282.059 253.298C282.161 253.387 282.263 253.48 282.363 253.572C285.476 256.445 288.027 259.87 289.886 263.672C290.624 265.185 291.246 266.752 291.746 268.36C292.437 270.58 293.008 273.042 294.354 274.852C294.492 275.042 294.642 275.224 294.803 275.396L306.835 275.301C306.863 275.287 306.89 275.276 306.917 275.262L307.398 275.28C307.378 275.195 307.356 275.108 307.336 275.023C307.324 274.974 307.31 274.925 307.299 274.876C307.29 274.843 307.282 274.81 307.276 274.78C307.273 274.769 307.27 274.758 307.268 274.75C307.262 274.72 307.253 274.693 307.248 274.665C307.123 274.176 306.995 273.687 306.863 273.198C306.863 273.196 306.863 273.196 306.86 273.193C305.89 269.457 304.479 265.85 302.656 262.446C302.601 262.345 302.545 262.241 302.484 262.14C301.64 260.634 300.675 259.199 299.597 257.849C299.004 257.112 298.375 256.405 297.711 255.731C295.991 253.994 294.008 252.537 291.834 251.414C287.5 249.176 282.497 248.345 277.896 249.769C277.778 249.806 277.663 249.842 277.546 249.881Z" fill="#F0F0F0"/>
<path d="M277.574 250.034C283.575 251.173 289.064 254.169 293.26 258.595C294.18 259.532 294.947 260.608 295.531 261.783C296.063 262.946 296.274 264.23 296.14 265.501C296.039 266.689 295.798 267.892 295.989 269.084C296.095 269.693 296.33 270.272 296.677 270.784C297.023 271.295 297.475 271.728 298.001 272.054C299.292 272.9 300.81 273.232 302.306 273.506C303.967 273.81 305.697 274.1 307.09 275.122C307.258 275.246 307.441 274.978 307.273 274.854C304.85 273.076 301.626 273.478 298.981 272.23C297.747 271.648 296.682 270.691 296.366 269.322C296.09 268.125 296.338 266.883 296.45 265.682C296.599 264.443 296.441 263.188 295.991 262.024C295.469 260.823 294.745 259.72 293.851 258.761C291.873 256.57 289.563 254.704 287.003 253.229C284.092 251.53 280.91 250.339 277.596 249.71C277.391 249.671 277.37 249.995 277.574 250.034V250.034Z" fill="white"/>
<path d="M291.993 257.091C292.642 256.288 292.984 255.281 292.958 254.25C292.931 253.219 292.538 252.231 291.848 251.462C291.708 251.307 291.46 251.517 291.6 251.672C292.244 252.387 292.61 253.307 292.633 254.267C292.655 255.227 292.333 256.164 291.724 256.908C291.592 257.07 291.862 257.252 291.993 257.091Z" fill="white"/>
<path d="M296.27 264.906C294.17 265.149 292.055 264.594 290.347 263.352C290.178 263.229 289.995 263.497 290.164 263.62C291.944 264.909 294.146 265.482 296.331 265.224C296.539 265.2 296.478 264.881 296.27 264.906V264.906Z" fill="white"/>
<path d="M284.04 251.957C283.853 252.319 283.58 252.63 283.243 252.862C282.906 253.093 282.517 253.237 282.111 253.282C281.903 253.304 281.965 253.622 282.172 253.6C282.62 253.549 283.05 253.389 283.422 253.135C283.795 252.88 284.099 252.538 284.309 252.139C284.332 252.103 284.34 252.06 284.332 252.018C284.324 251.976 284.3 251.939 284.266 251.914C284.23 251.89 284.186 251.881 284.144 251.889C284.102 251.897 284.064 251.921 284.04 251.957L284.04 251.957Z" fill="white"/>
<path d="M232.006 180.05C232.215 180.324 232.482 180.55 232.788 180.71C233.094 180.87 233.432 180.962 233.777 180.978C234.122 180.994 234.467 180.935 234.787 180.804C235.106 180.673 235.394 180.474 235.628 180.22L243.333 183.562L242.582 179.273L235.38 176.757C234.927 176.393 234.356 176.208 233.775 176.236C233.193 176.264 232.642 176.503 232.227 176.909C231.811 177.315 231.558 177.859 231.518 178.438C231.477 179.017 231.651 179.59 232.006 180.05V180.05Z" fill="#A0616A"/>
<path d="M239.017 177.627L253.736 179.529L268.915 170.412C269.727 169.924 270.633 169.613 271.574 169.5C272.515 169.387 273.469 169.474 274.374 169.755C275.278 170.036 276.113 170.505 276.823 171.131C277.533 171.757 278.102 172.525 278.493 173.386C279.197 174.945 279.277 176.713 278.717 178.328C278.157 179.944 276.999 181.285 275.48 182.076L255.082 189.324L255.044 189.338L237.148 181.389L239.017 177.627Z" fill="#3F3D56"/>
<path d="M276.633 272.544H273.504L272.016 260.51L276.634 260.51L276.633 272.544Z" fill="#A0616A"/>
<path d="M277.431 275.568L267.342 275.568V275.441C267.342 274.402 267.756 273.406 268.492 272.672C269.229 271.938 270.227 271.525 271.269 271.525H271.269L273.112 270.131L276.55 271.525L277.431 271.525L277.431 275.568Z" fill="#2F2E41"/>
<path d="M264.507 270.578L261.456 271.265L257.345 259.853L261.85 258.839L264.507 270.578Z" fill="#A0616A"/>
<path d="M265.954 273.353L256.113 275.568L256.085 275.444C255.855 274.431 256.039 273.369 256.595 272.491C257.151 271.613 258.034 270.991 259.05 270.762L259.05 270.762L260.54 268.997L264.202 269.602L265.061 269.409L265.954 273.353Z" fill="#2F2E41"/>
<path d="M280.596 198.974C282.063 203.385 281.908 208.174 280.243 213.314L279.532 242.252C279.532 242.252 280.592 261.229 277.171 267.907H272.21L269.753 240.519L269.445 222.136L258.808 237.645L265.583 267.459L259.477 268.003L248.483 235.648L262.047 204.258L280.596 198.974Z" fill="#2F2E41"/>
<path d="M260.512 203.239L261.735 200.189L260.926 197.567L260.742 172.158L260.742 172.138L263.678 167.47L263.702 164.518L271.9 164.318L272.789 166.57L274.548 167.618C276.467 168.765 278.048 170.396 279.133 172.346C280.219 174.296 280.77 176.497 280.732 178.727L280.414 195.87L281.232 197.502C281.455 197.945 281.578 198.43 281.594 198.926C281.61 199.421 281.519 199.913 281.326 200.37C281.133 200.827 280.844 201.236 280.477 201.571C280.111 201.905 279.676 202.156 279.203 202.308L261.162 205.185L260.512 203.239Z" fill="#3F3D56"/>
<path d="M267.05 161.519C271.164 161.519 274.499 158.193 274.499 154.091C274.499 149.989 271.164 146.664 267.05 146.664C262.936 146.664 259.601 149.989 259.601 154.091C259.601 158.193 262.936 161.519 267.05 161.519Z" fill="#A0616A"/>
<path d="M274.807 155.71C275.029 154.777 274.927 153.464 274.801 152.524C274.64 151.285 274.22 150.093 273.568 149.027C272.916 147.96 272.046 147.041 271.015 146.331C270.62 146.032 270.15 145.846 269.657 145.793C269.41 145.772 269.163 145.83 268.952 145.957C268.74 146.085 268.574 146.277 268.478 146.504C268.354 146.195 268.167 145.914 267.93 145.68C267.693 145.445 267.41 145.262 267.099 145.14C266.474 144.902 265.802 144.811 265.136 144.877C263.845 144.983 262.607 145.435 261.553 146.186C260.499 146.938 259.669 147.959 259.15 149.143C258.951 149.614 258.396 147.873 258.144 148.319C257.912 148.781 257.508 149.135 257.018 149.305C256.524 149.442 256.323 151.472 256.129 150.998C255.978 151.348 255.918 151.73 255.955 152.109C255.993 152.488 256.125 152.851 256.341 153.165C256.557 153.479 256.849 153.734 257.19 153.905C257.531 154.076 257.91 154.158 258.292 154.144C258.79 154.079 259.285 153.985 259.772 153.861C260.666 153.749 261.571 153.967 262.316 154.474C263.06 154.982 263.593 155.743 263.812 156.615C263.948 156.108 264.166 155.626 264.456 155.188C264.603 154.97 264.8 154.791 265.031 154.664C265.262 154.538 265.52 154.468 265.783 154.461C266.035 154.49 266.278 154.57 266.498 154.696C266.718 154.821 266.909 154.991 267.061 155.193C267.389 155.577 267.635 156.025 267.965 156.407C268.935 157.528 270.246 160.141 271.627 159.95C272.717 159.8 274.503 156.985 274.807 155.71Z" fill="#2F2E41"/>
<path d="M239.281 199.763C239.598 199.901 239.942 199.967 240.287 199.958C240.633 199.948 240.972 199.864 241.281 199.709C241.59 199.555 241.862 199.335 242.076 199.065C242.291 198.795 242.444 198.481 242.524 198.146L250.883 197.304L248.125 193.929L240.61 195.246C240.036 195.149 239.446 195.266 238.953 195.574C238.46 195.882 238.097 196.359 237.933 196.916C237.769 197.473 237.816 198.07 238.065 198.595C238.313 199.12 238.746 199.535 239.281 199.763V199.763Z" fill="#A0616A"/>
<path d="M244.208 194.232L257.98 188.714L266.75 173.36C267.219 172.539 267.857 171.826 268.622 171.268C269.387 170.711 270.262 170.321 271.189 170.125C272.116 169.929 273.074 169.931 274.001 170.131C274.927 170.331 275.8 170.724 276.563 171.285V171.285C277.942 172.301 278.879 173.804 279.183 175.486C279.486 177.168 279.133 178.903 278.196 180.334L263.958 196.601L263.932 196.632L244.423 198.424L244.208 194.232Z" fill="#3F3D56"/>
<path d="M237.964 207.006H181.463C181.069 207.006 180.691 206.849 180.413 206.572C180.135 206.294 179.978 205.918 179.978 205.525V182.666C179.978 182.273 180.135 181.897 180.413 181.619C180.691 181.342 181.069 181.185 181.463 181.185H237.964C238.357 181.185 238.735 181.342 239.013 181.619C239.292 181.897 239.448 182.273 239.449 182.666V205.525C239.448 205.918 239.292 206.294 239.013 206.572C238.735 206.849 238.357 207.006 237.964 207.006V207.006Z" fill="#00ADE5"/>
<path d="M232.584 217.972H186.843C186.608 217.972 186.376 217.927 186.16 217.837C185.943 217.748 185.747 217.617 185.581 217.452C185.415 217.287 185.284 217.091 185.194 216.876C185.104 216.66 185.058 216.429 185.058 216.195C185.058 215.961 185.104 215.73 185.194 215.514C185.284 215.299 185.415 215.103 185.581 214.938C185.747 214.772 185.943 214.642 186.16 214.553C186.376 214.463 186.608 214.418 186.843 214.418H232.584C234.882 214.386 234.905 218.004 232.584 217.972Z" fill="#E4E4E4"/>
<path d="M232.584 226.116H186.843C186.37 226.116 185.917 225.929 185.582 225.596C185.248 225.263 185.06 224.811 185.06 224.339C185.06 223.868 185.248 223.416 185.582 223.083C185.917 222.75 186.37 222.562 186.843 222.562H232.584C234.882 222.53 234.905 226.149 232.584 226.116Z" fill="#E4E4E4"/>
<path d="M232.584 234.261H186.843C186.608 234.261 186.376 234.216 186.16 234.126C185.943 234.037 185.747 233.906 185.581 233.741C185.415 233.576 185.284 233.38 185.194 233.165C185.104 232.949 185.058 232.718 185.058 232.484C185.058 232.25 185.104 232.019 185.194 231.803C185.284 231.588 185.415 231.392 185.581 231.227C185.747 231.062 185.943 230.931 186.16 230.842C186.376 230.752 186.608 230.707 186.843 230.707H232.584C234.882 230.675 234.905 234.293 232.584 234.261Z" fill="#E4E4E4"/>
<path d="M40.3651 146.375C30.4188 133.344 26.412 114.855 33.8155 100.238C41.1623 116.47 54.0301 129.587 70.1423 137.269C76.3669 140.209 83.5972 142.833 86.5436 149.041C88.3771 152.903 88.0998 157.497 86.7223 161.543C85.3447 165.59 82.9578 169.206 80.5959 172.772L80.4832 173.833C65.2295 167.765 50.3114 159.405 40.3651 146.375Z" fill="#F0F0F0"/>
<path d="M34.1413 100.35C34.7509 113.748 39.6571 127.039 48.0972 137.507C49.922 139.77 51.9706 141.908 54.4212 143.503C56.8219 145.039 59.5914 145.906 62.4419 146.015C65.0978 146.169 67.8323 146.019 70.4043 146.815C73.1153 147.653 75.1357 149.638 76.3289 152.173C77.7887 155.275 78.0439 158.714 78.1762 162.087C78.323 165.831 78.4161 169.723 80.2338 173.104C80.454 173.513 79.8036 173.83 79.5837 173.421C76.4212 167.538 78.3296 160.584 76.4086 154.381C75.5122 151.487 73.7356 148.844 70.8105 147.719C68.2527 146.735 65.4327 146.886 62.7423 146.753C59.9173 146.614 57.2717 146.018 54.8079 144.589C52.2876 143.127 50.1509 141.064 48.2761 138.858C44.0623 133.822 40.6688 128.157 38.2198 122.07C35.3862 115.138 33.7626 107.775 33.4193 100.297C33.3983 99.8346 34.1204 99.8906 34.1413 100.35L34.1413 100.35Z" fill="white"/>
<path d="M45.1738 134.249C43.1951 135.421 40.8629 135.854 38.5937 135.47C36.3246 135.086 34.2662 133.91 32.7862 132.152C32.4879 131.796 33.0298 131.317 33.3284 131.674C34.7035 133.313 36.621 134.408 38.7348 134.762C40.8486 135.115 43.0194 134.703 44.8554 133.601C45.2547 133.361 45.5708 134.011 45.1738 134.249V134.249Z" fill="white"/>
<path d="M61.0849 146.113C62.2864 141.577 61.7292 136.757 59.5245 132.612C59.3057 132.202 59.956 131.885 60.1745 132.295C62.4608 136.612 63.0304 141.63 61.7697 146.347C61.6492 146.797 60.9651 146.56 61.0849 146.113V146.113Z" fill="white"/>
<path d="M36.3457 115.159C37.2061 114.865 37.9796 114.362 38.5969 113.695C39.2142 113.029 39.6558 112.22 39.8821 111.342C39.9968 110.891 40.6808 111.128 40.5669 111.576C40.3123 112.545 39.8235 113.438 39.1431 114.175C38.4628 114.913 37.6116 115.473 36.664 115.807C36.5774 115.846 36.4791 115.851 36.3891 115.82C36.2992 115.789 36.2243 115.726 36.1798 115.642C36.1381 115.556 36.1321 115.457 36.1632 115.366C36.1942 115.276 36.2598 115.201 36.3457 115.159V115.159Z" fill="white"/>
<path d="M88.0393 87.9583C87.9757 88.2419 87.9121 88.5254 87.8526 88.8135C87.0174 92.6301 86.4946 96.508 86.2893 100.409C86.2686 100.71 86.2522 101.016 86.2402 101.317C85.8461 110.721 87.2062 120.116 90.2515 129.024C91.4666 132.568 92.9503 136.015 94.6898 139.334C97.0923 143.918 100.063 148.697 100.785 153.659C100.867 154.176 100.916 154.697 100.932 155.22L81.7899 173.888C81.725 173.908 81.6642 173.933 81.5991 173.954L80.869 174.735C80.7673 174.57 80.6654 174.396 80.5637 174.231C80.5043 174.136 80.4492 174.036 80.3898 173.941C80.3515 173.876 80.3135 173.811 80.2752 173.754C80.2624 173.733 80.2498 173.711 80.2413 173.694C80.203 173.637 80.1735 173.581 80.1396 173.529C79.5671 172.562 79.0005 171.589 78.4397 170.611C78.4354 170.607 78.4354 170.607 78.4354 170.598C74.1816 163.134 70.5153 155.249 68.1658 147.061C68.0951 146.814 68.02 146.564 67.9582 146.309C66.9196 142.612 66.1859 138.836 65.7642 135.02C65.54 132.93 65.4222 130.83 65.411 128.728C65.3926 123.296 66.2312 117.895 67.8961 112.723C71.2164 102.413 77.8066 93.2768 87.3095 88.3293C87.5527 88.2028 87.7918 88.0804 88.0393 87.9583Z" fill="#F0F0F0"/>
<path d="M88.2339 88.2426C80.6308 99.306 76.5232 112.863 76.9413 126.288C77.0317 129.191 77.3767 132.127 78.3704 134.872C79.3596 137.54 81.0472 139.895 83.2579 141.693C85.2855 143.41 87.5588 144.933 89.1324 147.111C90.7909 149.408 91.205 152.207 90.6271 154.947C89.92 158.3 88.0469 161.199 86.1162 163.971C83.9727 167.049 81.6973 170.212 81.1071 174.003C81.0355 174.462 80.325 174.325 80.3964 173.866C81.4232 167.271 87.146 162.864 89.3576 156.758C90.3895 153.909 90.5666 150.732 88.9107 148.077C87.4626 145.756 85.1197 144.184 83.0517 142.463C80.8803 140.655 79.1277 138.592 78.0235 135.971C76.894 133.291 76.4331 130.361 76.2687 127.474C75.9449 120.924 76.656 114.363 78.3759 108.033C80.2987 100.797 83.4487 93.9431 87.6895 87.7668C87.9521 87.3846 88.4948 87.8629 88.2339 88.2426L88.2339 88.2426Z" fill="white"/>
<path d="M76.5745 121.932C74.2868 121.68 72.1634 120.625 70.5834 118.956C69.0035 117.288 68.07 115.113 67.9495 112.821C67.9267 112.357 68.6485 112.3 68.6713 112.765C68.7795 114.899 69.6493 116.925 71.1237 118.476C72.5981 120.027 74.58 121.001 76.7117 121.223C77.1749 121.272 77.0351 121.98 76.5745 121.932H76.5745Z" fill="white"/>
<path d="M82.1149 140.957C85.813 138.056 88.279 133.873 89.021 129.24C89.0941 128.781 89.8048 128.918 89.7317 129.377C88.9505 134.196 86.3754 138.545 82.5204 141.555C82.1528 141.841 81.7493 141.242 82.1149 140.957V140.957Z" fill="white"/>
<path d="M81.0524 101.39C81.9172 101.671 82.8385 101.734 83.7337 101.573C84.6288 101.411 85.4698 101.031 86.1809 100.465C86.5448 100.174 86.9479 100.774 86.5865 101.063C85.7978 101.684 84.8686 102.103 83.88 102.284C82.8913 102.464 81.8734 102.401 80.9152 102.098C80.8225 102.078 80.7412 102.022 80.6879 101.944C80.6347 101.865 80.6134 101.769 80.6284 101.676C80.6471 101.582 80.702 101.499 80.7814 101.446C80.8608 101.392 80.9582 101.372 81.0524 101.39V101.39Z" fill="white"/>
<path d="M93.1447 124.348C97.5737 124.348 101.164 120.768 101.164 116.352C101.164 111.936 97.5737 108.356 93.1447 108.356C88.7157 108.356 85.1253 111.936 85.1253 116.352C85.1253 120.768 88.7157 124.348 93.1447 124.348Z" fill="#2F2E41"/>
<path d="M137.025 193.301H80.5237C80.1299 193.301 79.7525 193.145 79.474 192.867C79.1956 192.589 79.039 192.213 79.0386 191.82V168.961C79.039 168.568 79.1956 168.192 79.474 167.914C79.7525 167.637 80.1299 167.48 80.5237 167.48H137.025C137.418 167.48 137.796 167.637 138.074 167.914C138.353 168.192 138.509 168.568 138.51 168.961V191.82C138.509 192.213 138.353 192.589 138.074 192.867C137.796 193.145 137.418 193.301 137.025 193.301V193.301Z" fill="#D1D3D4"/>
<path d="M131.645 204.267H85.9036C85.4323 204.265 84.981 204.077 84.6486 203.744C84.3161 203.411 84.1294 202.96 84.1294 202.49C84.1294 202.02 84.3161 201.569 84.6486 201.236C84.981 200.903 85.4323 200.715 85.9036 200.713H131.645C133.943 200.681 133.966 204.299 131.645 204.267Z" fill="#E4E4E4"/>
<path d="M131.645 212.412H85.9036C85.6694 212.412 85.4373 212.366 85.2208 212.277C85.0043 212.188 84.8076 212.057 84.6418 211.892C84.4761 211.727 84.3446 211.531 84.2549 211.315C84.1651 211.099 84.119 210.868 84.119 210.635C84.119 210.401 84.1651 210.17 84.2549 209.954C84.3446 209.738 84.4761 209.542 84.6418 209.377C84.8076 209.212 85.0043 209.081 85.2208 208.992C85.4373 208.903 85.6694 208.857 85.9036 208.858H131.645C133.943 208.826 133.966 212.444 131.645 212.412Z" fill="#E4E4E4"/>
<path d="M131.645 220.556H85.9036C85.4309 220.556 84.9776 220.369 84.6434 220.036C84.3092 219.702 84.1215 219.25 84.1215 218.779C84.1215 218.308 84.3092 217.856 84.6434 217.523C84.9776 217.189 85.4309 217.002 85.9036 217.002H131.645C133.943 216.97 133.966 220.588 131.645 220.556Z" fill="#E4E4E4"/>
<path d="M135.4 132.144C135.183 132.472 134.896 132.749 134.56 132.955C134.224 133.16 133.847 133.29 133.455 133.335C133.063 133.38 132.666 133.338 132.292 133.213C131.918 133.089 131.575 132.884 131.289 132.613L111.269 141.134L111.796 136.193L131.306 128.65C131.794 128.201 132.431 127.947 133.095 127.934C133.759 127.922 134.405 128.153 134.909 128.584C135.414 129.014 135.743 129.614 135.833 130.271C135.924 130.927 135.77 131.593 135.4 132.144V132.144Z" fill="#FFB6B6"/>
<path d="M94.6499 131.685C94.6499 131.685 92.1746 134.082 94.6311 137.167C97.0876 140.252 109.233 142.258 111.181 142.639C113.129 143.021 123.965 135.672 123.965 135.672L125.014 130.348L112.919 134.485L94.6499 131.685Z" fill="#00ADE5"/>
<path d="M88.0023 149.873L88.1973 153.566C88.1973 153.566 87.622 156.837 88.0951 157.543C88.5647 158.245 101.379 158.334 101.379 158.334C101.379 158.334 102.225 153.783 102.954 149.799L88.0023 149.873Z" fill="#FFB6B6"/>
<path d="M124.844 198.699L127.523 198.159L126.756 187.37L122.802 188.166L124.844 198.699Z" fill="#FFB6B6"/>
<path d="M128.681 184.658L131.171 183.541L127.941 173.218L124.265 174.867L128.681 184.658Z" fill="#FFB6B6"/>
<path d="M130.85 178.841L126.161 181.489L114.596 162.959C106.478 168.413 98.5392 171.024 90.5362 172.418C87.8304 172.899 85.0717 172.655 84.5523 169.909C84.528 169.781 84.5086 169.652 84.4942 169.522C84.1747 166.522 87.9165 162.678 88.3922 159.008L98.633 158.395L99.8959 160.009L111.739 152.749C112.314 152.404 112.952 152.176 113.615 152.078C114.279 151.981 114.955 152.014 115.606 152.178C116.256 152.342 116.868 152.633 117.405 153.034C117.942 153.434 118.394 153.937 118.736 154.513C118.814 154.642 118.887 154.773 118.954 154.908L130.85 178.841Z" fill="#2F2E41"/>
<path d="M127.98 191.307L122.615 191.804L112.886 171.964C103.239 173.619 94.1372 174.149 86.2649 172.147C84.9725 171.807 83.8663 170.973 83.1854 169.826C82.5044 168.679 82.3034 167.311 82.6258 166.018C82.6565 165.891 82.6919 165.765 82.7321 165.641C83.6743 162.775 86.1405 160.747 88.0836 157.594L102.277 157.809L100.691 163.263L114.479 161.484C115.145 161.404 115.82 161.457 116.466 161.639C117.111 161.821 117.714 162.129 118.24 162.545C118.766 162.96 119.204 163.475 119.529 164.06C119.854 164.645 120.06 165.289 120.135 165.954C120.153 166.103 120.165 166.253 120.171 166.403L127.98 191.307Z" fill="#2F2E41"/>
<path d="M93.5442 125.023C96.7271 125.023 99.3073 122.45 99.3073 119.277C99.3073 116.103 96.7271 113.53 93.5442 113.53C90.3613 113.53 87.781 116.103 87.781 119.277C87.781 122.45 90.3613 125.023 93.5442 125.023Z" fill="#FFB6B6"/>
<path d="M90.1655 127.098L95.4498 127.717C95.6727 127.744 95.8818 127.838 96.048 127.989C96.2143 128.139 96.3294 128.337 96.3773 128.556L97.2176 132.39L102.456 138.541C102.456 138.541 104.337 142.058 103.632 146.044C102.927 150.03 102.617 152.992 102.617 152.992C102.617 152.992 88.564 158.246 88.0938 157.542C87.6235 156.839 87.4709 153.644 87.4709 153.644L85.5897 132.777C85.5897 132.777 87.706 129.26 88.8817 129.26C89.6405 129.234 89.5432 127.531 90.1655 127.098Z" fill="#00ADE5"/>
<path d="M102.759 154.275C103.5 154.275 104.101 153.556 104.101 152.669C104.101 151.783 103.5 151.064 102.759 151.064C102.018 151.064 101.418 151.783 101.418 152.669C101.418 153.556 102.018 154.275 102.759 154.275Z" fill="#00ADE5"/>
<path d="M123.514 195.921L127.598 193.88L128.368 195.67L133.533 196.711C133.788 196.763 134.02 196.894 134.195 197.086C134.37 197.278 134.478 197.521 134.505 197.779C134.532 198.037 134.475 198.297 134.343 198.521C134.211 198.745 134.011 198.92 133.772 199.023L128.782 201.155L127.16 199.752L127.586 201.666L125.705 202.471L123.514 195.921Z" fill="#2F2E41"/>
<path d="M127.512 183.799L131.56 181.687L132.361 183.464L137.543 184.414C137.799 184.461 138.033 184.588 138.211 184.777C138.39 184.966 138.503 185.207 138.534 185.465C138.565 185.722 138.513 185.983 138.385 186.209C138.257 186.435 138.06 186.614 137.823 186.721L132.871 188.941L131.225 187.566L131.684 189.473L129.817 190.31L127.512 183.799Z" fill="#2F2E41"/>
<path d="M90.2515 117.474C88.7289 117.476 87.2429 117.009 85.9974 116.136L85.9558 116.107V116.056C85.9575 114.588 86.5433 113.18 87.5847 112.141C88.6261 111.103 90.0381 110.519 91.5108 110.517H93.8498C95.3226 110.519 96.7346 111.103 97.776 112.141C98.8174 113.18 99.4032 114.588 99.4048 116.056C99.4033 116.392 99.2702 116.714 99.0339 116.954C98.7976 117.194 98.4768 117.332 98.1398 117.34L90.3829 117.473C90.3392 117.474 90.2952 117.474 90.2515 117.474Z" fill="#2F2E41"/>
<path d="M113.449 162.174C113.056 162.211 112.66 162.16 112.289 162.028C111.917 161.895 111.58 161.682 111.3 161.405C111.02 161.128 110.804 160.793 110.668 160.424C110.532 160.055 110.478 159.66 110.511 159.269L91.3243 149.016L95.521 146.337L113.623 156.804C114.28 156.904 114.877 157.24 115.302 157.749C115.727 158.258 115.95 158.905 115.928 159.567C115.907 160.228 115.642 160.86 115.185 161.34C114.728 161.821 114.111 162.118 113.449 162.174H113.449Z" fill="#FFB6B6"/>
<path d="M88.3303 130.175C88.3303 130.175 84.9064 129.748 84.0276 133.588C83.1488 137.428 89.1725 148.135 90.0916 149.889C91.0107 151.644 103.537 155.481 103.537 155.481L108.361 152.969L97.5605 146.144L88.3303 130.175Z" fill="#00ADE5"/>
<path d="M94.4361 111.373C94.9754 110.714 94.5538 109.738 94.1116 109.01C93.0985 107.343 92.035 105.708 90.9211 104.104C89.5293 102.101 87.8429 100.006 85.4465 99.5259C83.2611 99.0878 81.0594 100.123 79.1792 101.318C77.3307 102.492 75.5101 103.971 74.8065 106.04C74.1332 108.021 74.6061 110.22 75.4438 112.138C76.1613 113.78 77.1266 115.743 76.1034 117.216C75.6135 117.821 74.9551 118.267 74.211 118.5C72.3213 119.232 70.2907 119.53 68.2696 119.374C71.0447 119.344 73.4738 122.185 76.164 121.506C77.6895 121.12 78.7055 119.702 79.4367 118.313C79.9715 117.379 80.3333 116.358 80.5047 115.296C80.6824 113.857 80.298 112.342 80.7833 110.975C81.2885 109.552 82.6313 108.6 83.9867 107.928C84.8866 107.482 85.8676 107.11 86.8698 107.185C89.7106 107.4 91.182 110.886 93.8776 111.805" fill="#2F2E41"/>
<path d="M190.989 130.831H134.488C134.094 130.831 133.716 130.674 133.438 130.397C133.16 130.119 133.003 129.743 133.003 129.35V106.491C133.003 106.098 133.16 105.722 133.438 105.444C133.716 105.166 134.094 105.01 134.488 105.01H190.989C191.382 105.01 191.76 105.166 192.038 105.444C192.317 105.722 192.473 106.098 192.474 106.491V129.35C192.473 129.743 192.317 130.119 192.038 130.397C191.76 130.674 191.382 130.831 190.989 130.831V130.831Z" fill="#00ADE5"/>
<path d="M185.609 141.797H139.868C139.395 141.797 138.942 141.61 138.607 141.276C138.273 140.943 138.086 140.491 138.086 140.02C138.086 139.549 138.273 139.097 138.607 138.763C138.942 138.43 139.395 138.243 139.868 138.243H185.609C187.907 138.211 187.93 141.829 185.609 141.797Z" fill="#E4E4E4"/>
<path d="M185.609 149.941H139.868C139.633 149.942 139.401 149.896 139.185 149.807C138.968 149.718 138.772 149.587 138.606 149.422C138.44 149.257 138.309 149.061 138.219 148.845C138.129 148.629 138.083 148.398 138.083 148.164C138.083 147.931 138.129 147.7 138.219 147.484C138.309 147.268 138.44 147.072 138.606 146.907C138.772 146.742 138.968 146.611 139.185 146.522C139.401 146.433 139.633 146.387 139.868 146.387H185.609C187.907 146.355 187.93 149.974 185.609 149.941Z" fill="#E4E4E4"/>
<path d="M185.609 158.086H139.868C139.395 158.086 138.942 157.899 138.607 157.565C138.273 157.232 138.086 156.78 138.086 156.309C138.086 155.838 138.273 155.386 138.607 155.052C138.942 154.719 139.395 154.532 139.868 154.532H185.609C187.907 154.5 187.93 158.118 185.609 158.086Z" fill="#E4E4E4"/>
<path d="M251.281 74.3323H62.0128C61.7318 74.332 61.4623 74.2205 61.2635 74.0224C61.0648 73.8242 60.953 73.5555 60.9527 73.2752V67.0571C60.953 66.7768 61.0648 66.5081 61.2635 66.31C61.4623 66.1118 61.7318 66.0003 62.0128 66H251.281C251.563 66.0003 251.832 66.1118 252.031 66.31C252.23 66.5081 252.341 66.7768 252.342 67.0571V73.2752C252.341 73.5555 252.23 73.8242 252.031 74.0224C251.832 74.2205 251.563 74.332 251.281 74.3323V74.3323Z" fill="#E6E7E8"/>
<path d="M67.1052 71.3637C67.9365 71.3637 68.6104 70.6918 68.6104 69.8629C68.6104 69.034 67.9365 68.3621 67.1052 68.3621C66.274 68.3621 65.6001 69.034 65.6001 69.8629C65.6001 70.6918 66.274 71.3637 67.1052 71.3637Z" fill="white"/>
<path d="M72.8183 71.3637C73.6495 71.3637 74.3234 70.6918 74.3234 69.8629C74.3234 69.034 73.6495 68.3621 72.8183 68.3621C71.987 68.3621 71.3131 69.034 71.3131 69.8629C71.3131 70.6918 71.987 71.3637 72.8183 71.3637Z" fill="white"/>
<path d="M78.5316 71.3637C79.3629 71.3637 80.0368 70.6918 80.0368 69.8629C80.0368 69.034 79.3629 68.3621 78.5316 68.3621C77.7004 68.3621 77.0265 69.034 77.0265 69.8629C77.0265 70.6918 77.7004 71.3637 78.5316 71.3637Z" fill="white"/>
<path d="M245.684 68.8299H239.105C238.977 68.8288 238.854 68.7772 238.763 68.6862C238.672 68.5952 238.622 68.4722 238.622 68.344C238.622 68.2158 238.672 68.0928 238.763 68.0018C238.854 67.9107 238.977 67.8591 239.105 67.858H245.684C245.812 67.8591 245.935 67.9107 246.026 68.0018C246.116 68.0928 246.167 68.2158 246.167 68.344C246.167 68.4722 246.116 68.5952 246.026 68.6862C245.935 68.7772 245.812 68.8288 245.684 68.8299V68.8299Z" fill="white"/>
<path d="M245.684 70.652H239.105C238.976 70.652 238.852 70.6009 238.76 70.5097C238.669 70.4186 238.618 70.295 238.618 70.1661C238.618 70.0373 238.669 69.9137 238.76 69.8225C238.852 69.7314 238.976 69.6802 239.105 69.6802H245.684C245.748 69.6797 245.812 69.6918 245.872 69.716C245.931 69.7402 245.985 69.7759 246.031 69.8211C246.077 69.8662 246.113 69.92 246.138 69.9792C246.163 70.0384 246.175 70.102 246.175 70.1661C246.175 70.2303 246.163 70.2938 246.138 70.3531C246.113 70.4123 246.077 70.466 246.031 70.5112C245.985 70.5564 245.931 70.5921 245.872 70.6163C245.812 70.6404 245.748 70.6526 245.684 70.652Z" fill="white"/>
<path d="M245.684 72.4742H239.105C238.976 72.4742 238.852 72.423 238.76 72.3319C238.669 72.2408 238.618 72.1172 238.618 71.9883C238.618 71.8595 238.669 71.7359 238.76 71.6447C238.852 71.5536 238.976 71.5024 239.105 71.5024H245.684C245.813 71.5024 245.937 71.5536 246.028 71.6447C246.12 71.7359 246.171 71.8595 246.171 71.9883C246.171 72.1172 246.12 72.2408 246.028 72.3319C245.937 72.423 245.813 72.4742 245.684 72.4742Z" fill="white"/>
</svg>
