<svg width="342" height="342" viewBox="0 0 342 342" fill="none" xmlns="http://www.w3.org/2000/svg">
<rect width="342" height="342" fill="white"/>
<g clip-path="url(#clip0_2_3)">
<path opacity="0.1" d="M123.6 270.601C137.311 270.601 148.426 268.813 148.426 266.608C148.426 264.403 137.311 262.615 123.6 262.615C109.89 262.615 98.7748 264.403 98.7748 266.608C98.7748 268.813 109.89 270.601 123.6 270.601Z" fill="#00ADE5"/>
<path opacity="0.1" d="M258.549 270.713C275.658 270.713 289.527 268.925 289.527 266.72C289.527 264.515 275.658 262.727 258.549 262.727C241.44 262.727 227.57 264.515 227.57 266.72C227.57 268.925 241.44 270.713 258.549 270.713Z" fill="#00ADE5"/>
<path opacity="0.1" d="M33.5261 157.29H59.3836V192.585H35.4191C35.3554 192.947 35.2943 193.312 35.228 193.677H59.3836V222.141C59.3403 222.128 59.302 222.113 59.2613 222.098C58.5785 221.827 57.9008 221.541 57.223 221.235L56.7899 221.039C56.1105 220.717 55.4311 220.377 54.7517 220.018C54.5148 219.893 54.2778 219.763 54.0434 219.63C50.2716 217.514 46.8452 214.833 43.8829 211.68C43.7962 211.596 43.7147 211.506 43.6281 211.425C43.2153 210.976 42.8102 210.522 42.4179 210.057L41.9848 209.547C41.5211 208.978 41.0727 208.394 40.637 207.802C40.5733 207.715 40.5121 207.628 40.4459 207.547C38.674 205.086 37.2028 202.422 36.0637 199.612C36.0281 199.527 35.9975 199.435 35.9644 199.356C35.6145 198.455 35.3045 197.545 35.0344 196.626C34.9172 196.241 34.8051 195.861 34.7083 195.46C34.6726 195.343 34.6421 195.228 34.614 195.113C33.1669 189.457 32.9962 183.581 32.9962 177.745C32.9962 177.064 32.9962 176.38 32.9962 175.704C32.9962 173.344 33.0242 170.969 33.065 168.596C33.065 167.981 33.0905 167.369 33.1032 166.751C33.1389 165.185 33.1898 163.618 33.2561 162.051C33.2714 161.615 33.2917 161.181 33.3147 160.748C33.3147 160.498 33.3274 160.248 33.3529 159.998C33.414 159.089 33.465 158.189 33.5261 157.29Z" fill="#00ADE5"/>
<path opacity="0.1" d="M59.3836 117.993H45.2001C47.5057 114.379 50.0248 110.906 52.744 107.593C54.8511 105.001 57.0753 102.475 59.3836 100.041V117.993Z" fill="#00ADE5"/>
<path opacity="0.1" d="M59.3836 119.085V156.198H33.6077C33.6077 156.091 33.6255 155.982 33.6331 155.874C33.6561 155.581 33.679 155.288 33.7045 154.997C33.7325 154.655 33.7631 154.31 33.7962 153.976C33.8293 153.642 33.865 153.234 33.9032 152.864C33.9414 152.494 33.9771 152.119 34.0204 151.749C34.0637 151.379 34.1019 151.009 34.1478 150.641C34.1936 150.274 34.2344 149.901 34.2828 149.534C34.321 149.228 34.3618 148.924 34.4026 148.618C34.4612 148.187 34.5223 147.753 34.5886 147.324C34.5886 147.261 34.6064 147.194 34.6166 147.133C35.0816 143.995 35.7152 140.885 36.5147 137.815C37.3515 134.595 38.4201 131.44 39.7121 128.375C41.0853 125.168 42.6931 122.067 44.5224 119.098L59.3836 119.085Z" fill="#00ADE5"/>
<path opacity="0.1" d="M65.5568 157.288V192.585H120.785V157.288H65.5568ZM65.5568 193.674V223.986C65.8727 224.052 66.1861 224.116 66.497 224.169C66.9199 224.251 67.3403 224.325 67.7708 224.389C67.8524 224.402 67.9365 224.414 68.0256 224.422C68.1938 224.45 68.367 224.473 68.5352 224.496C68.9607 224.555 69.3836 224.603 69.8091 224.641C70.0103 224.662 70.2142 224.68 70.418 224.695L70.9097 224.733C71.1772 224.754 71.4422 224.769 71.7046 224.777C71.8677 224.777 72.0307 224.792 72.1989 224.797C72.3263 224.797 72.4537 224.797 72.5862 224.797C72.7186 224.797 72.9072 224.797 73.0677 224.797C73.2868 224.797 73.5059 224.797 73.7225 224.797H74.0155C74.2346 224.797 74.4537 224.797 74.6702 224.777H74.6855C74.8358 224.777 74.9887 224.777 75.1416 224.756C75.184 224.759 75.2265 224.759 75.269 224.756C75.3964 224.756 75.5237 224.756 75.646 224.738H75.7352L76.5887 224.672C76.869 224.646 77.1518 224.613 77.4371 224.583L78.018 224.514C80.3813 224.182 82.7183 223.684 85.0117 223.024C90.1633 221.585 95.2028 219.572 100.352 218.097C107.009 216.196 114.365 215.262 120.798 217.587V193.674H65.5568ZM120.785 117.993V71.0026C114.739 70.937 108.708 71.6452 102.841 73.1101C88.8563 76.6285 76.3085 84.26 65.5568 94.0065V117.99H68.3288V119.08H65.5568V156.198H120.785V119.082H79.7098V117.993H120.785ZM191.723 102.12C188.263 101.998 184.824 100.901 181.713 99.2064C175.764 95.9661 171.012 90.9626 165.702 86.74C154.671 77.9451 140.989 72.638 126.953 71.3215V117.993H205.794L205.991 117.786L191.723 102.12ZM198.905 100.844L206.52 109.213V98.6502C203.97 98.9666 201.736 99.7193 198.915 100.834L198.905 100.844ZM206.52 231.512V193.674H190.294C190.25 193.514 190.207 193.35 190.156 193.187C190.204 193.35 190.245 193.514 190.291 193.674H126.963V221.039C127.565 221.485 128.158 221.955 128.747 222.432C129.381 222.942 130.008 223.48 130.637 224.009L131.272 224.534C131.575 224.789 131.881 225.045 132.189 225.284C132.8 225.781 133.418 226.271 134.041 226.754C134.349 227.009 134.665 227.239 134.979 227.479C139.954 231.288 145.202 234.725 150.681 237.764C151.909 238.444 153.148 239.108 154.398 239.756C155.231 240.182 156.069 240.606 156.91 241.017C158.174 241.634 159.448 242.229 160.732 242.803C172.57 248.125 185.089 251.777 197.929 253.654C200.781 254.076 203.644 254.408 206.518 254.649V231.51H206.773L206.52 231.512ZM126.963 119.082V156.198H206.531V119.082H126.963ZM126.963 157.288V192.585H206.531V157.288H126.963ZM212.706 98.6043V110.387L222.426 99.7065C219.206 99.186 215.966 98.8143 212.706 98.5915V98.6043ZM212.706 157.301V192.585H290.095V157.288L212.706 157.301ZM289.813 234.314L290.085 193.674H212.706V255.055C217.691 255.265 222.684 255.205 227.662 254.876V254.876H227.749C230.127 254.727 232.493 254.509 234.849 254.223H234.903C247.471 252.758 259.761 249.474 271.387 244.474L289.813 234.314ZM305.018 163.1C304.727 162.414 304.424 161.733 304.116 161.059C303.54 159.783 302.931 158.543 302.304 157.303H296.266V192.585H311.532C311.525 182.593 309 172.387 305.025 163.087L305.018 163.1ZM296.266 193.687V228.642C300.567 224.514 304.2 219.791 306.816 214.392C309.963 207.891 311.402 200.852 311.52 193.682L296.266 193.687ZM296.266 147.016V156.201H301.739C300.083 153.039 298.259 149.969 296.274 147.003L296.266 147.016ZM243.782 105.529C243.379 105.376 242.977 105.22 242.572 105.07C238.299 103.49 233.933 102.176 229.499 101.135L214.625 117.483L214.34 117.786L214.531 117.995H267.469C260.096 112.913 252.147 108.724 243.789 105.516L243.782 105.529ZM269.02 119.095H213.792L212.706 120.09V156.198H222.22H222.235H290.106V138.708C283.966 131.272 276.88 124.674 269.028 119.082L269.02 119.095Z" fill="#00ADE5"/>
<path opacity="0.1" d="M59.3836 137.805V156.198H33.6077C33.6077 156.091 33.6255 155.982 33.6331 155.874C33.6561 155.581 33.679 155.288 33.7045 154.997C33.7325 154.655 33.7631 154.31 33.7962 153.976C33.8293 153.642 33.865 153.234 33.9032 152.864C33.9414 152.494 33.9771 152.119 34.0204 151.749C34.0637 151.379 34.1019 151.009 34.1478 150.641C34.1936 150.274 34.2344 149.901 34.2828 149.534C34.321 149.228 34.3618 148.924 34.4026 148.618C34.4612 148.187 34.5223 147.753 34.5886 147.324C34.5886 147.261 34.6064 147.194 34.6166 147.133C35.0816 143.995 35.7152 140.885 36.5147 137.815L59.3836 137.805Z" fill="#00ADE5"/>
<path opacity="0.1" d="M33.5261 157.29H59.3836V192.585H35.4191C35.3554 192.947 35.2943 193.312 35.228 193.677H59.3836V222.141C59.3403 222.128 59.302 222.113 59.2613 222.098C58.5785 221.827 57.9008 221.541 57.223 221.235L56.7899 221.039C56.1105 220.717 55.4311 220.377 54.7517 220.018C54.5148 219.893 54.2778 219.763 54.0434 219.63C50.2716 217.514 46.8452 214.833 43.8829 211.68C43.7962 211.596 43.7147 211.506 43.6281 211.425C43.2153 210.976 42.8102 210.522 42.4179 210.057L41.9848 209.547C41.5211 208.978 41.0727 208.394 40.637 207.802C40.5733 207.715 40.5121 207.628 40.4459 207.547C38.674 205.086 37.2028 202.422 36.0637 199.612C36.0281 199.527 35.9975 199.435 35.9644 199.356C35.6145 198.455 35.3045 197.545 35.0344 196.626C34.9172 196.241 34.8051 195.861 34.7083 195.46C34.6726 195.343 34.6421 195.228 34.614 195.113C33.1669 189.457 32.9962 183.581 32.9962 177.745C32.9962 177.064 32.9962 176.38 32.9962 175.704C32.9962 173.344 33.0242 170.969 33.065 168.596C33.065 167.981 33.0905 167.369 33.1032 166.751C33.1389 165.185 33.1898 163.618 33.2561 162.051C33.2714 161.615 33.2917 161.181 33.3147 160.748C33.3147 160.498 33.3274 160.248 33.3529 159.998C33.414 159.089 33.465 158.189 33.5261 157.29Z" fill="#00ADE5"/>
<path opacity="0.1" d="M84.9989 124.397V156.198H65.5568V124.397H68.3288V113.63H79.7072V124.397H84.9989Z" fill="#00ADE5"/>
<path opacity="0.1" d="M84.9989 157.288H65.5594V192.582H84.9989V157.288Z" fill="#00ADE5"/>
<path opacity="0.1" d="M65.5568 193.677H84.9989V223.019C82.7056 223.679 80.3685 224.176 78.0053 224.506L77.4244 224.578C77.139 224.611 76.8562 224.639 76.576 224.667C76.2957 224.695 76.0053 224.715 75.7225 224.733H75.6333C75.511 224.733 75.3785 224.749 75.2588 224.751H75.1288C74.976 224.751 74.8231 224.766 74.6702 224.771C74.4537 224.784 74.2371 224.787 74.0155 224.789C73.9212 224.789 73.832 224.789 73.7377 224.789C73.5186 224.789 73.3021 224.789 73.083 224.789H72.6014C72.4715 224.789 72.3467 224.789 72.2116 224.789L71.7199 224.771C71.4651 224.771 71.19 224.743 70.925 224.726L70.4358 224.69L69.8269 224.634C69.3989 224.595 68.9734 224.547 68.553 224.488L68.0435 224.417L67.7887 224.381C67.3632 224.315 66.9428 224.243 66.5148 224.162C66.2014 224.108 65.8906 224.042 65.5747 223.978L65.5568 193.677Z" fill="#00ADE5"/>
<path opacity="0.1" d="M206.531 120.641H190.5V156.196H206.531V120.641Z" fill="#00ADE5"/>
<path opacity="0.1" d="M206.533 157.288V192.585H126.963V177.36H169.346V186.341H190.5V157.288H206.533Z" fill="#00ADE5"/>
<path opacity="0.1" d="M206.785 231.52H206.531V254.675C203.66 254.431 200.798 254.101 197.945 253.682C185.098 251.799 172.574 248.139 160.732 242.808C157.313 241.267 153.963 239.584 150.683 237.761C145.205 234.721 139.956 231.284 134.979 227.476C133.729 226.517 132.495 225.535 131.277 224.532C130.434 223.835 129.595 223.121 128.747 222.427C128.158 221.95 127.565 221.48 126.963 221.031V193.677H190.289C190.245 193.514 190.202 193.35 190.156 193.19C190.204 193.35 190.25 193.514 190.294 193.677H206.531V231.505C206.617 231.507 206.701 231.515 206.785 231.52Z" fill="#00ADE5"/>
<path opacity="0.1" d="M248.34 117.993H237.894V114.742H242.577V105.059C242.983 105.207 243.387 105.36 243.789 105.516V114.742H248.34V117.993Z" fill="#00ADE5"/>
<path opacity="0.1" d="M273.507 156.198H222.225C222.225 156.198 222.225 156.198 222.243 156.211L222.22 156.198H212.706V120.644H215.402V146.924H227.721V131.36H237.896V119.085H248.342V131.37H258.518V146.934H273.507V156.198Z" fill="#00ADE5"/>
<path opacity="0.1" d="M212.706 157.288V192.585H273.507V157.288H212.706ZM290.011 234.133L290.095 206.194H273.507V193.692H212.706V255.055C217.691 255.264 222.684 255.205 227.662 254.876V254.876H227.749C230.126 254.726 232.493 254.509 234.849 254.223H234.903C247.471 252.758 259.761 249.474 271.387 244.474" fill="#00ADE5"/>
<path opacity="0.1" d="M297.346 193.677H311.53C311.405 200.844 309.968 207.883 306.824 214.384C304.207 219.786 300.572 224.509 296.276 228.634V206.182H297.346V193.677Z" fill="#00ADE5"/>
<path opacity="0.1" d="M311.537 192.585H297.346V163.087H305.025C309 172.387 311.525 182.593 311.537 192.585Z" fill="#00ADE5"/>
<path opacity="0.1" d="M206.533 130.526H197.945V141.673H206.533V130.526Z" fill="#00ADE5"/>
<path opacity="0.1" d="M206.533 153.632H197.945V156.198H206.533V153.632Z" fill="#00ADE5"/>
<path opacity="0.1" d="M206.533 157.288H197.945V164.776H206.533V157.288Z" fill="#00ADE5"/>
<path opacity="0.1" d="M206.533 176.738H197.945V187.885H206.533V176.738Z" fill="#00ADE5"/>
<path opacity="0.1" d="M206.533 199.844H197.945V210.991H206.533V199.844Z" fill="#00ADE5"/>
<path opacity="0.1" d="M206.531 231.505C206.617 231.505 206.701 231.505 206.785 231.52H206.531V234.11H197.945V222.95H206.531V231.505Z" fill="#00ADE5"/>
<path opacity="0.1" d="M206.531 246.051V254.662C203.66 254.419 200.798 254.088 197.945 253.669V246.051H206.531Z" fill="#00ADE5"/>
<path opacity="0.1" d="M163.771 191.766H126.963V192.585H163.771V191.766Z" fill="#00ADE5"/>
<path opacity="0.1" d="M163.771 193.674H126.963V196.813H163.771V193.674Z" fill="#00ADE5"/>
<path opacity="0.1" d="M163.771 207.1H126.963V212.147H163.771V207.1Z" fill="#00ADE5"/>
<path opacity="0.1" d="M163.769 222.434V227.481H134.979C133.729 226.525 132.494 225.544 131.274 224.537C130.431 223.84 129.595 223.126 128.744 222.434H163.769Z" fill="#00ADE5"/>
<path opacity="0.1" d="M163.769 237.766V242.808H160.729C157.313 241.265 153.965 239.582 150.683 237.758L163.769 237.766Z" fill="#00ADE5"/>
<path opacity="0.1" d="M234.91 160.709H227.664V167.966H234.91V160.709Z" fill="#00ADE5"/>
<path opacity="0.1" d="M78.0231 126.9H70.7772V134.156H78.0231V126.9Z" fill="#00ADE5"/>
<path opacity="0.1" d="M78.0231 143.755H70.7772V151.011H78.0231V143.755Z" fill="#00ADE5"/>
<path opacity="0.1" d="M78.0231 160.61H70.7772V167.866H78.0231V160.61Z" fill="#00ADE5"/>
<path opacity="0.1" d="M78.0231 177.462H70.7772V184.719H78.0231V177.462Z" fill="#00ADE5"/>
<path opacity="0.1" d="M78.0231 194.317H70.7772V201.574H78.0231V194.317Z" fill="#00ADE5"/>
<path opacity="0.1" d="M78.0231 211.172H70.7772V218.429H78.0231V211.172Z" fill="#00ADE5"/>
<path opacity="0.1" d="M262.572 160.709H255.326V167.966H262.572V160.709Z" fill="#00ADE5"/>
<path opacity="0.1" d="M234.91 178.608H227.664V185.864H234.91V178.608Z" fill="#00ADE5"/>
<path opacity="0.1" d="M262.572 178.608H255.326V185.864H262.572V178.608Z" fill="#00ADE5"/>
<path opacity="0.1" d="M234.91 196.504H227.664V203.76H234.91V196.504Z" fill="#00ADE5"/>
<path opacity="0.1" d="M262.572 196.504H255.326V203.76H262.572V196.504Z" fill="#00ADE5"/>
<path opacity="0.1" d="M234.91 214.402H227.664V221.659H234.91V214.402Z" fill="#00ADE5"/>
<path opacity="0.1" d="M262.572 214.402H255.326V221.659H262.572V214.402Z" fill="#00ADE5"/>
<path opacity="0.1" d="M234.91 232.301H227.664V239.557H234.91V232.301Z" fill="#00ADE5"/>
<path opacity="0.1" d="M262.572 232.301H255.326V239.557H262.572V232.301Z" fill="#00ADE5"/>
<path opacity="0.1" d="M227.664 254.876V250.197H234.908V254.21L227.664 254.876Z" fill="#00ADE5"/>
<path opacity="0.1" d="M34.586 147.128V151.279H59.3836V147.128H34.586ZM37.0574 151.019H35.0344V147.383H37.0726L37.0574 151.019ZM39.5262 151.019H37.4879V147.383H39.5262V151.019ZM41.9899 151.019H39.9516V147.383H41.9899V151.019ZM44.4587 151.019H42.423V147.383H44.4612L44.4587 151.019ZM46.9249 151.019H44.8867V147.383H46.9249V151.019ZM49.3937 151.019H47.3555V147.383H49.3937V151.019ZM51.8625 151.019H49.8243V147.383H51.8625V151.019ZM54.3288 151.019H52.2905V147.383H54.3288V151.019ZM56.795 151.019H54.7568V147.383H56.795V151.019ZM59.2613 151.019H57.223V147.383H59.2613V151.019Z" fill="#00ADE5"/>
<path opacity="0.1" d="M34.586 159.207V163.358H59.3836V159.207H34.586ZM37.0574 163.095H35.0344V159.469H37.0726L37.0574 163.095ZM39.5262 163.095H37.4879V159.469H39.5262V163.095ZM41.9899 163.095H39.9516V159.469H41.9899V163.095ZM44.4587 163.095H42.423V159.469H44.4612L44.4587 163.095ZM46.9249 163.095H44.8867V159.469H46.9249V163.095ZM49.3937 163.095H47.3555V159.469H49.3937V163.095ZM51.8625 163.095H49.8243V159.469H51.8625V163.095ZM54.3288 163.095H52.2905V159.469H54.3288V163.095ZM56.795 163.095H54.7568V159.469H56.795V163.095ZM59.2613 163.095H57.223V159.469H59.2613V163.095Z" fill="#00ADE5"/>
<path opacity="0.1" d="M34.586 171.29V175.449H59.3836V171.29H34.586ZM37.0574 175.179H35.0344V171.551H37.0726L37.0574 175.179ZM39.5262 175.179H37.4879V171.551H39.5262V175.179ZM41.9899 175.179H39.9516V171.551H41.9899V175.179ZM44.4587 175.179H42.423V171.551H44.4612L44.4587 175.179ZM46.9249 175.179H44.8867V171.551H46.9249V175.179ZM49.3937 175.179H47.3555V171.551H49.3937V175.179ZM51.8625 175.179H49.8243V171.551H51.8625V175.179ZM54.3288 175.179H52.2905V171.551H54.3288V175.179ZM56.795 175.179H54.7568V171.551H56.795V175.179ZM59.2613 175.179H57.223V171.551H59.2613V175.179Z" fill="#00ADE5"/>
<path opacity="0.1" d="M34.586 183.374V187.52H59.3836V183.374H34.586ZM37.0574 187.262H35.0344V183.632H37.0726L37.0574 187.262ZM39.5262 187.262H37.4879V183.632H39.5262V187.262ZM41.9899 187.262H39.9516V183.632H41.9899V187.262ZM44.4587 187.262H42.423V183.632H44.4612L44.4587 187.262ZM46.9249 187.262H44.8867V183.632H46.9249V187.262ZM49.3937 187.262H47.3555V183.632H49.3937V187.262ZM51.8625 187.262H49.8243V183.632H51.8625V187.262ZM54.3288 187.262H52.2905V183.632H54.3288V187.262ZM56.795 187.262H54.7568V183.632H56.795V187.262ZM59.2613 187.262H57.223V183.632H59.2613V187.262Z" fill="#00ADE5"/>
<path opacity="0.1" d="M34.693 195.455C34.7924 195.846 34.9045 196.236 35.0217 196.621V195.715H37.0599V199.344H35.9695C36.0026 199.428 36.0357 199.52 36.0688 199.599H59.3836V195.455H34.693ZM39.5338 199.344H37.4956V195.715H39.5338V199.344ZM41.9975 199.344H39.9593V195.715H41.9975V199.344ZM44.4663 199.344H42.423V195.715H44.4612L44.4663 199.344ZM46.9326 199.344H44.8943V195.715H46.9326V199.344ZM49.4014 199.344H47.3631V195.715H49.4014V199.344ZM51.8702 199.344H49.8319V195.715H51.8702V199.344ZM54.3364 199.344H52.2982V195.715H54.3364V199.344ZM56.8027 199.344H54.7644V195.715H56.8027V199.344ZM59.2689 199.344H57.2307V195.715H59.2689V199.344Z" fill="#00ADE5"/>
<path opacity="0.1" d="M40.451 207.539C40.5147 207.621 40.5758 207.712 40.6421 207.794H41.9899V209.537C42.1351 209.71 42.2778 209.884 42.4255 210.047V207.784H44.4638V211.425H43.6383C43.7198 211.509 43.7988 211.598 43.893 211.68H59.3912V207.539H40.451ZM46.9249 211.425H44.8867V207.799H46.9249V211.425ZM49.3937 211.425H47.3555V207.799H49.3937V211.425ZM51.8625 211.425H49.8243V207.799H51.8625V211.425ZM54.3288 211.425H52.2905V207.799H54.3288V211.425ZM56.795 211.425H54.7568V207.799H56.795V211.425ZM59.2613 211.425H57.223V207.799H59.2613V211.425Z" fill="#00ADE5"/>
<path opacity="0.1" d="M54.0536 219.62C54.2855 219.753 54.5224 219.875 54.7619 220.008V219.88H56.8001V221.028L57.2332 221.23V219.88H59.2715V222.087C59.3106 222.107 59.3515 222.122 59.3938 222.133V219.62H54.0536Z" fill="#00ADE5"/>
<path opacity="0.1" d="M222.225 156.198H222.24H222.225ZM206.531 231.502H206.785H206.531ZM190.156 193.187C190.204 193.35 190.245 193.514 190.291 193.674C190.25 193.514 190.207 193.35 190.156 193.187ZM222.225 156.191H222.24H222.225ZM68.339 117.985V119.075H79.7199V117.985H68.339ZM206.531 231.502H206.785H206.531ZM190.156 193.187C190.204 193.35 190.245 193.514 190.291 193.674C190.25 193.514 190.207 193.35 190.156 193.187ZM222.225 156.191H222.24H222.225ZM206.531 231.495H206.785H206.531ZM190.156 193.187C190.204 193.35 190.245 193.514 190.291 193.674C190.25 193.514 190.207 193.35 190.156 193.187Z" fill="#00ADE5"/>
<path d="M147.606 167.871C147.606 167.871 146.602 167.731 146.602 166.266C146.602 164.802 145.883 162.067 145.883 162.067C145.883 162.054 145.262 157.303 144.403 156.548C143.544 155.793 142.441 151.358 142.441 151.358C142.441 151.358 142.253 148.952 141.868 148.434C141.483 147.916 140.964 146.648 140.197 144.839C139.43 143.03 136.232 141.778 136.232 141.778C136.232 141.778 130.451 138.42 128.813 137.325C128.664 137.235 128.525 137.13 128.398 137.011C128.113 136.636 126.869 136.629 126.869 136.629C126.739 135.807 126.614 134.863 126.574 134.008C126.574 133.916 126.574 133.825 126.561 133.733C128.388 132.651 129.764 130.946 130.436 128.931C130.467 128.834 130.492 128.732 130.52 128.635C130.63 128.599 130.73 128.54 130.816 128.463C130.901 128.386 130.97 128.291 131.017 128.186C131.165 127.857 131.167 127.472 131.351 127.165C131.565 126.803 131.972 126.609 132.293 126.336C133.104 125.647 133.313 124.486 133.274 123.43C133.249 122.575 133.111 121.713 133.165 120.863L133.18 120.649C133.195 120.521 133.213 120.394 133.236 120.271C133.361 119.639 133.634 119.041 133.786 118.414C133.939 117.786 133.955 117.079 133.598 116.538C133.076 115.745 131.988 115.587 131.032 115.505C129.949 115.413 128.981 115.533 128.288 114.633C127.964 114.162 127.599 113.72 127.198 113.313C127.055 113.181 125.669 112.334 125.669 112.278C124.316 111.65 122.783 111.532 121.351 111.946C120.632 112.155 119.955 112.497 119.226 112.668C117.654 113.04 115.845 112.637 114.51 113.538C113.766 114.048 113.32 114.86 112.902 115.651C112.563 116.302 112.218 116.953 111.868 117.602C111.305 118.672 110.732 119.758 110.495 120.942C110.445 121.2 110.414 121.461 110.403 121.723V121.736C110.403 121.83 110.403 121.925 110.403 122.019V122.139C110.403 122.228 110.403 122.315 110.418 122.394C110.433 122.473 110.431 122.499 110.439 122.552C110.446 122.606 110.459 122.726 110.474 122.807C110.49 122.889 110.52 123.032 110.551 123.144C110.563 123.193 110.581 123.239 110.597 123.285C110.622 123.371 110.653 123.455 110.686 123.54C110.704 123.583 110.721 123.629 110.742 123.672C110.78 123.762 110.826 123.848 110.872 123.928C110.892 123.963 110.907 123.996 110.928 124.03C110.999 124.148 111.077 124.262 111.162 124.371C111.707 125.053 112.51 125.486 113.104 126.124C113.104 126.15 113.104 126.175 113.104 126.198C113.104 126.27 113.104 126.339 113.104 126.41C113.135 127.833 113.513 129.226 114.205 130.469C114.897 131.712 115.881 132.767 117.073 133.541C117.073 133.638 117.086 133.738 117.091 133.835C117.14 134.592 117.131 135.352 117.063 136.108C116.959 135.986 116.829 135.888 116.683 135.823C116.536 135.758 116.377 135.726 116.217 135.731C116.107 135.725 115.998 135.735 115.891 135.759L115.868 135.741V135.764C115.307 135.902 114.617 136.486 113.957 138.147C113.957 138.147 111.949 140.413 110.421 140.318C108.892 140.224 105.022 142.676 105.022 142.676C105.022 142.676 101.246 145.13 100.436 147.631C99.9831 149.048 99.4402 150.436 98.8105 151.784L94.143 161.416L93.2818 169.058C93.2818 169.058 93.7582 172.456 93.664 172.974C93.5697 173.492 95.6232 178.164 95.6232 178.164C95.6232 178.164 102.408 190.102 105.18 190.715L105.379 190.574C105.497 190.636 105.623 190.683 105.753 190.715L106.324 190.311C106.358 190.761 106.344 191.212 106.281 191.659C105.898 192.837 106.423 200.53 107.091 202.038C107.758 203.546 107.521 223.317 107.521 223.317L107.427 225.062C107.427 225.062 107.427 225.118 107.45 225.215L107.427 225.629L107.496 225.664C107.567 226.218 107.544 226.78 107.427 227.325C107.188 228.091 107.091 230.255 107.091 230.255C107.091 230.255 105.182 242.471 106.087 244.925C106.991 247.38 107.761 250.069 107.761 250.069C107.761 250.069 108.716 253.131 107.807 253.654C106.897 254.177 104.311 255.055 104.844 256.33C105.328 257.509 107.165 260.668 107.437 261.13L107.414 261.372L107.04 265.437C107.1 265.973 107.246 266.497 107.47 266.988C107.881 267.873 108.678 268.792 110.194 268.692C110.449 268.674 110.744 268.644 111.03 268.606C113.804 268.233 117.221 266.993 117.221 266.993C117.043 266.88 116.881 266.746 116.737 266.592V266.592C116.6 266.46 116.492 266.301 116.419 266.126C116.346 265.951 116.309 265.762 116.311 265.572C116.352 264.832 114.969 261.306 114.625 260.438C114.571 260.313 114.543 260.242 114.543 260.242C114.543 260.242 117.697 256.94 117.172 254.014C117.172 254.014 113.682 251.973 114.831 250.853C115.98 249.732 118.033 246.515 118.033 246.515C118.033 246.515 118.128 234.485 118.033 232.689C117.935 231.442 117.994 230.188 118.209 228.956C118.248 228.77 118.293 228.588 118.342 228.41C119.931 228.647 121.535 228.769 123.142 228.775C123.728 228.775 124.324 228.775 124.925 228.739C124.925 228.909 124.933 229.093 124.948 229.29C125.081 232.27 125.328 237.496 125.529 239.437C125.814 242.221 127.391 249.722 127.391 249.722C127.391 249.722 124.383 251.656 127.916 256.422C127.916 256.422 127.916 258.15 127.682 258.4C127.432 259.217 127.23 260.049 127.078 260.89C126.93 261.788 126.869 262.696 127.109 263.168C127.682 264.296 131.121 264.204 131.121 264.204L131.206 264.189C131.855 264.122 132.511 264.184 133.136 264.373C133.761 264.562 134.342 264.873 134.846 265.289C136.153 266.34 141.114 265.878 143.799 265.544C144.851 265.411 145.555 265.289 145.555 265.289C145.589 265.169 145.601 265.045 145.59 264.921C145.562 264.26 145.045 262.811 141.539 261.518C141.539 261.518 138.242 259.298 138.288 257.364H138.22H137.837C138.115 257.349 138.293 257.364 138.293 257.364C138.293 257.364 137.002 252.644 137.529 252.261C138.057 251.878 136.477 246.648 136.477 246.648C136.477 246.648 135.572 237.871 135.524 237.256C135.526 236.728 135.606 236.204 135.761 235.699L135.524 230.887C135.524 230.887 135.478 229.288 135.524 228.767C135.516 228.315 135.48 227.864 135.414 227.417C135.392 227.239 135.369 227.052 135.343 226.869C136.579 226.555 137.381 226.264 137.381 226.264L137.239 209.514C138.288 207.473 138.482 202.995 138.477 199.818C138.477 197.777 138.385 196.267 138.385 196.267L139.82 193.922C139.82 193.922 140.151 191.115 139.626 190.5C139.394 190.222 139.499 189.934 139.69 189.697C139.789 189.618 139.894 189.546 140.003 189.482C140.003 189.482 139.988 189.459 139.97 189.426C140.07 189.342 140.177 189.266 140.288 189.199C140.288 189.199 139.779 188.408 140.235 188.074C140.663 188.365 141.045 188.584 141.335 188.763C141.315 188.949 141.295 189.056 141.295 189.056L141.417 188.801C141.697 188.959 141.868 189.056 141.868 189.056C141.868 189.056 144.115 184.573 144.067 183.912C144.018 183.252 145.595 180.468 145.595 180.468C145.595 180.468 145.786 179.006 146.648 178.394C147.509 177.781 147.315 173.344 147.315 173.344C147.315 173.344 147.555 171.033 148.128 170.089C148.701 169.145 147.606 167.871 147.606 167.871ZM104.609 165.904L104.653 166.973C104.398 166.562 104.214 166.266 104.214 166.266L104.609 165.904Z" fill="url(#paint0_linear_2_3)"/>
<path d="M141.99 187.12L141.44 189.467C141.44 189.467 137.032 187.214 136.237 184.351C135.442 181.489 137.567 180.402 137.567 180.402L141.674 182.144L141.99 187.12Z" fill="white"/>
<path opacity="0.1" d="M141.99 187.12L141.44 189.467C141.44 189.467 137.032 187.214 136.237 184.351C135.442 181.489 137.567 180.402 137.567 180.402L141.674 182.144L141.99 187.12Z" fill="black"/>
<path d="M117.254 267.008C117.254 267.008 113.177 268.509 110.375 268.697C108.887 268.797 108.105 267.884 107.702 267.003C107.482 266.514 107.34 265.993 107.282 265.46L107.646 261.416L107.84 259.262L113.794 257.713L114.637 260.295L114.716 260.492C115.055 261.354 116.413 264.863 116.372 265.595C116.371 265.782 116.407 265.968 116.479 266.141C116.55 266.315 116.656 266.472 116.79 266.603C116.927 266.757 117.083 266.893 117.254 267.008V267.008Z" fill="white"/>
<path d="M145.099 264.952C145.109 265.075 145.097 265.198 145.063 265.317C145.063 265.317 136.344 266.774 134.561 265.317C134.058 264.891 133.472 264.576 132.84 264.39C132.208 264.205 131.545 264.154 130.892 264.24C130.892 264.24 127.519 264.332 126.956 263.219C126.721 262.753 126.783 261.847 126.928 260.954C127.076 260.117 127.273 259.29 127.519 258.476L127.654 258.369L128.456 257.724L137.853 257.446H137.924C137.878 259.369 141.114 261.576 141.114 261.576C144.551 262.852 145.058 264.294 145.099 264.952Z" fill="white"/>
<path opacity="0.1" d="M145.099 264.952C145.107 265.075 145.095 265.198 145.06 265.317C145.06 265.317 136.344 266.774 134.561 265.317C134.058 264.891 133.473 264.576 132.841 264.391C132.21 264.205 131.547 264.154 130.895 264.24C130.895 264.24 127.519 264.332 126.958 263.219C126.724 262.75 126.783 261.847 126.928 260.954C128.227 261.084 130.278 261.408 131.083 262.181C132.301 263.357 134.365 264.531 135.631 264.623C136.622 264.687 142.551 264.875 145.099 264.952Z" fill="black"/>
<path opacity="0.1" d="M117.254 267.008C117.254 267.008 113.177 268.509 110.375 268.697C108.887 268.797 108.105 267.884 107.705 267.001C108.742 267.35 110.181 267.718 110.938 267.381C111.835 266.983 115.014 266.725 116.798 266.615C116.934 266.764 117.087 266.896 117.254 267.008V267.008Z" fill="black"/>
<path d="M123.302 146.107C119.939 144.798 115.613 140.474 116.693 138.453C116.933 137.943 117.076 137.393 117.114 136.83C117.183 136.067 117.193 135.299 117.144 134.534C117.069 133.281 116.918 132.034 116.693 130.799C116.693 130.799 127.193 131.036 126.581 132.585C126.403 133.039 126.375 133.827 126.423 134.71C126.472 135.593 126.599 136.59 126.732 137.435C126.915 138.593 127.098 139.476 127.098 139.476C127.098 139.476 126.456 140.377 126.079 140.425C125.702 140.474 128.128 147.972 123.302 146.107Z" fill="#CF6F80"/>
<path opacity="0.1" d="M114.709 260.492L114.63 260.579C111.491 256.777 107.695 261.515 107.695 261.515L107.639 261.416L107.832 259.262L113.786 257.713L114.63 260.295L114.709 260.492Z" fill="black"/>
<path opacity="0.1" d="M137.927 257.713C137.927 257.713 135.634 257.665 134.411 258.747C133.188 259.829 127.277 258.981 127.532 258.747C127.607 258.63 127.653 258.497 127.664 258.359L128.467 257.713L137.863 257.435C137.899 257.606 137.927 257.713 137.927 257.713Z" fill="black"/>
<path d="M118.614 227.859C118.444 228.282 118.314 228.72 118.227 229.168C118.015 230.394 117.956 231.642 118.051 232.883C118.146 234.669 118.051 246.638 118.051 246.638C118.051 246.638 116.036 249.829 114.912 250.955C113.789 252.08 117.205 254.101 117.205 254.101C117.715 257.009 114.627 260.295 114.627 260.295C111.488 256.494 107.692 261.234 107.692 261.234C107.692 261.234 105.628 257.662 105.114 256.387C104.599 255.111 107.129 254.228 108.018 253.71C108.907 253.192 107.975 250.138 107.975 250.138C107.975 250.138 107.223 247.462 106.332 245.02C105.44 242.578 107.315 230.423 107.315 230.423C107.315 230.423 107.412 228.264 107.644 227.512C107.761 226.969 107.784 226.409 107.712 225.858C107.697 225.672 107.679 225.517 107.667 225.412C107.654 225.307 107.644 225.259 107.644 225.259L107.679 225.198L108.953 222.82C108.953 222.82 119.226 226.361 118.614 227.859Z" fill="#00ADE5"/>
<path d="M137.927 257.433C137.927 257.433 135.634 257.384 134.411 258.453C133.188 259.522 127.277 258.688 127.532 258.453C127.786 258.219 127.766 256.481 127.766 256.481C124.298 251.74 127.256 249.817 127.256 249.817C127.256 249.817 125.707 242.354 125.427 239.585C125.231 237.651 124.989 232.454 124.859 229.487C124.803 228.211 124.77 227.333 124.77 227.333L127.603 226.762L127.967 226.688L134.8 225.315C134.8 225.315 134.989 226.591 135.116 227.634C135.18 228.08 135.216 228.529 135.223 228.979C135.177 229.489 135.223 231.086 135.223 231.086L135.455 235.875C135.304 236.378 135.226 236.899 135.223 237.424C135.269 238.034 136.158 246.765 136.158 246.765C136.158 246.765 137.705 251.975 137.177 252.35C136.65 252.725 137.927 257.433 137.927 257.433Z" fill="#00ADE5"/>
<path opacity="0.1" d="M126.581 132.585C126.403 133.039 126.375 133.827 126.423 134.71C125.017 135.558 123.4 135.992 121.759 135.961C120.118 135.93 118.518 135.437 117.144 134.536C117.069 133.283 116.918 132.034 116.693 130.799C116.693 130.799 127.193 131.031 126.581 132.585Z" fill="black"/>
<path d="M130.64 126.946C130.642 127.865 130.497 128.779 130.212 129.653C129.574 131.611 128.265 133.28 126.516 134.365C124.768 135.45 122.693 135.881 120.659 135.582C118.624 135.283 116.76 134.273 115.396 132.731C114.033 131.189 113.258 129.214 113.208 127.155C113.208 127.084 113.208 127.017 113.208 126.946C113.188 125.787 113.399 124.636 113.828 123.559C114.257 122.483 114.896 121.502 115.708 120.676C116.519 119.849 117.487 119.193 118.554 118.745C119.622 118.296 120.768 118.066 121.925 118.066C123.083 118.066 124.229 118.296 125.296 118.745C126.363 119.193 127.331 119.849 128.143 120.676C128.954 121.502 129.593 122.483 130.022 123.559C130.451 124.636 130.662 125.787 130.642 126.946H130.64Z" fill="#CF6F80"/>
<path opacity="0.1" d="M123.302 146.107C119.939 144.798 115.613 140.474 116.693 138.453C116.933 137.943 117.076 137.393 117.114 136.83L121.718 140.619L124.566 142.959L126.732 137.437C126.915 138.596 127.098 139.479 127.098 139.479C127.098 139.479 126.456 140.379 126.079 140.428C125.702 140.476 128.128 147.973 123.302 146.107Z" fill="black"/>
<path d="M135.208 162.853L131.363 227.532L126.349 227.861L113.366 190.357L115.496 145.832L115.944 136.425L121.718 141.173L124.569 143.513L126.798 137.83L130.943 141.448L135.208 162.853Z" fill="#00ADE5"/>
<path opacity="0.1" d="M118.614 227.859C118.444 228.282 118.314 228.72 118.227 229.168C114.579 228.604 111.035 227.495 107.715 225.879L107.646 225.843L107.669 225.432L107.682 225.218L108.956 222.84C108.956 222.84 119.226 226.361 118.614 227.859Z" fill="black"/>
<path opacity="0.1" d="M127.662 229.178C126.729 229.337 125.788 229.444 124.844 229.499C124.788 228.224 124.755 227.346 124.755 227.346L127.588 226.774L127.662 229.178Z" fill="black"/>
<path opacity="0.1" d="M135.101 227.647C133.29 228.119 130.492 228.65 127.988 228.318L127.952 226.7L134.785 225.328C134.785 225.328 134.974 226.591 135.101 227.647Z" fill="black"/>
<path opacity="0.1" d="M127.942 228.614C117.496 230.4 107.929 225.279 107.929 225.279L108.021 223.544C108.021 223.544 108.258 203.875 107.6 202.367C106.943 200.859 106.431 193.212 106.803 192.039C107.175 190.865 105.445 173.265 105.445 173.265L105.165 166.121L94.9073 161.96L99.4933 152.387C100.113 151.044 100.645 149.664 101.088 148.253C101.886 145.768 105.588 143.326 105.588 143.326C105.588 143.326 109.384 140.887 110.884 140.979C112.385 141.071 114.352 138.82 114.352 138.82C115.804 135.113 117.119 136.792 117.119 136.792C117.119 136.968 117.119 136.792 117.047 137.341C116.538 141.41 125.287 154.269 125.412 154.497L126.245 174.822L127.088 200.543L127.942 228.614Z" fill="black"/>
<path d="M127.662 228.614C117.216 230.4 107.646 225.279 107.646 225.279L107.74 223.544C107.74 223.544 107.977 203.875 107.318 202.367C106.658 200.859 106.148 193.212 106.523 192.039C106.897 190.865 105.165 173.265 105.165 173.265L104.882 166.121L94.6194 161.944L99.2054 152.371C99.8234 151.028 100.356 149.648 100.8 148.238C101.595 145.753 105.3 143.311 105.3 143.311C105.3 143.311 109.096 140.872 110.594 140.964C112.092 141.055 114.061 138.805 114.061 138.805C115.516 135.098 117.119 136.777 117.119 136.777C117.119 136.953 116.966 137.032 117.047 137.325C118.169 141.272 125.007 154.254 125.132 154.481L125.975 174.806L126.818 200.527L127.662 228.614Z" fill="white"/>
<path opacity="0.1" d="M124.846 155.06C123.723 154.591 117.771 147.786 117.771 147.786V146.237C117.555 145.727 116.268 146.038 115.223 146.396L115.672 136.988L116.181 137.412C117.297 141.357 124.716 154.833 124.846 155.06Z" fill="black"/>
<path d="M125.129 154.497C124.003 154.027 118.051 147.222 118.051 147.222V145.674C117.835 145.163 116.548 145.475 115.504 145.832L115.954 136.425L116.464 136.848C117.583 140.793 125.004 154.272 125.129 154.497Z" fill="white"/>
<path opacity="0.1" d="M107.929 188.434C108.069 188.434 115.193 187.683 115.193 187.683C115.193 187.683 119.506 196.177 119.223 198.244C118.94 200.311 118.428 202.14 116.693 201.816C114.958 201.492 107.356 202.071 107.356 202.071L107.929 188.434Z" fill="black"/>
<path d="M107.646 187.87C107.786 187.87 114.91 187.12 114.91 187.12C114.91 187.12 119.221 195.616 118.94 197.68C118.66 199.744 118.143 201.576 116.411 201.252C114.678 200.928 107.073 201.507 107.073 201.507L107.646 187.87Z" fill="white"/>
<path d="M113.014 183.882C113.014 183.882 119.552 187.4 119.692 188.474C119.832 189.549 116.365 188.005 115.616 187.819C115.123 187.7 114.621 187.621 114.115 187.584L109.119 187.719L113.014 183.882Z" fill="#CF6F80"/>
<path opacity="0.1" d="M123.022 155.499C123.402 155.499 123.71 155.191 123.71 154.81C123.71 154.43 123.402 154.122 123.022 154.122C122.642 154.122 122.334 154.43 122.334 154.81C122.334 155.191 122.642 155.499 123.022 155.499Z" fill="black"/>
<path d="M123.022 155.219C123.402 155.219 123.71 154.91 123.71 154.53C123.71 154.149 123.402 153.841 123.022 153.841C122.642 153.841 122.334 154.149 122.334 154.53C122.334 154.91 122.642 155.219 123.022 155.219Z" fill="#3F3D56"/>
<path opacity="0.1" d="M124.288 185.321C124.668 185.321 124.976 185.012 124.976 184.632C124.976 184.251 124.668 183.943 124.288 183.943C123.908 183.943 123.6 184.251 123.6 184.632C123.6 185.012 123.908 185.321 124.288 185.321Z" fill="black"/>
<path d="M124.288 185.038C124.668 185.038 124.976 184.729 124.976 184.349C124.976 183.968 124.668 183.66 124.288 183.66C123.908 183.66 123.6 183.968 123.6 184.349C123.6 184.729 123.908 185.038 124.288 185.038Z" fill="#3F3D56"/>
<path opacity="0.1" d="M123.707 170.41C124.087 170.41 124.395 170.102 124.395 169.721C124.395 169.341 124.087 169.032 123.707 169.032C123.327 169.032 123.02 169.341 123.02 169.721C123.02 170.102 123.327 170.41 123.707 170.41Z" fill="black"/>
<path d="M123.707 170.129C124.087 170.129 124.395 169.821 124.395 169.44C124.395 169.06 124.087 168.752 123.707 168.752C123.327 168.752 123.02 169.06 123.02 169.44C123.02 169.821 123.327 170.129 123.707 170.129Z" fill="#3F3D56"/>
<path d="M139.565 187.441C139.565 187.441 140.034 188.145 139.565 188.474C139.096 188.804 139.611 189.6 139.611 189.6C139.611 189.6 138.441 190.286 138.956 190.903C139.471 191.521 139.144 194.31 139.144 194.31L137.738 196.642C137.738 196.642 137.822 198.144 137.827 200.175C137.827 203.344 137.641 207.799 136.612 209.83L136.755 226.494C136.755 226.494 131.83 228.295 127.707 227.746L127.096 201.007C127.096 201.007 127.988 185.844 128.316 182.935C128.509 181.425 128.587 179.903 128.551 178.381C128.551 178.381 128.411 173.829 127.939 171.716C127.939 171.716 127.43 162.564 127.379 160.031C127.356 158.819 127.42 155.282 127.491 151.92C127.57 148.243 127.659 144.776 127.659 144.776L126.729 137.407C126.729 137.407 127.659 137.312 127.939 137.688C128.065 137.805 128.201 137.91 128.347 138.001V138.001C129.952 139.088 135.623 142.431 135.623 142.431C135.623 142.431 138.762 143.681 139.514 145.472C140.265 147.263 140.788 148.534 141.152 149.044C141.516 149.554 141.715 151.953 141.715 151.953C141.715 151.953 142.795 156.367 143.639 157.114C144.482 157.862 145.099 162.618 145.099 162.618L137.646 168.486C137.646 168.486 136.992 178.248 136.851 178.626C136.711 179.003 139.565 187.441 139.565 187.441Z" fill="white"/>
<path d="M139.848 187.441C139.848 187.441 140.314 188.145 139.848 188.474C139.381 188.804 139.891 189.6 139.891 189.6C139.891 189.6 138.729 190.294 139.239 190.911C139.748 191.528 139.427 194.317 139.427 194.317L138.021 196.649C138.021 196.649 138.105 198.152 138.113 200.183C138.113 203.352 137.927 207.807 136.897 209.838L137.037 226.501C137.037 226.501 132.105 228.303 127.988 227.754L127.379 201.015C127.379 201.015 128.27 185.851 128.599 182.943C128.792 181.433 128.869 179.91 128.831 178.388C128.831 178.388 128.691 173.837 128.222 171.724C128.222 171.724 127.712 162.572 127.659 160.038C127.636 158.826 127.702 155.29 127.771 151.927C127.85 148.251 127.939 144.783 127.939 144.783L126.711 137.315C126.711 137.315 127.939 137.315 128.222 137.695C128.346 137.814 128.483 137.919 128.63 138.009C130.235 139.096 135.909 142.438 135.909 142.438C135.909 142.438 139.045 143.689 139.797 145.48C140.548 147.271 141.071 148.541 141.437 149.052C141.804 149.562 141.998 151.96 141.998 151.96C141.998 151.96 143.078 156.374 143.921 157.122C144.765 157.87 145.374 162.615 145.374 162.615L137.921 168.484C137.921 168.484 137.267 178.246 137.124 178.623C136.981 179.001 139.848 187.441 139.848 187.441Z" fill="white"/>
<path opacity="0.1" d="M130.923 146.949L131.595 148.914L128.054 152.486C128.133 148.812 128.222 145.342 128.222 145.342L126.994 137.874C126.994 137.874 128.222 137.874 128.505 138.254C128.629 138.372 128.766 138.477 128.912 138.565L131.924 147.266L130.923 146.949Z" fill="black"/>
<path d="M130.64 146.385L131.315 148.35L127.774 151.922C127.853 148.246 127.942 144.778 127.942 144.778L126.711 137.31C126.711 137.31 127.942 137.31 128.222 137.69C128.347 137.808 128.484 137.913 128.63 138.004L131.644 146.702L130.64 146.385Z" fill="white"/>
<path opacity="0.1" d="M130.64 126.946C130.642 127.865 130.497 128.779 130.212 129.653C130.164 129.661 130.115 129.658 130.067 129.646C130.02 129.635 129.976 129.613 129.937 129.584C129.87 127.288 128.742 125.132 127.353 123.297C126.963 122.743 126.491 122.253 125.952 121.843C125.407 121.433 124.73 121.241 124.051 121.305C123.287 121.409 122.612 121.93 121.84 121.996C120.821 122.08 119.909 121.374 118.897 121.338C118.486 121.342 118.08 121.433 117.707 121.607C117.334 121.78 117.003 122.031 116.734 122.343C116.203 122.973 115.808 123.706 115.575 124.496C115.174 125.695 114.956 126.948 114.928 128.211C114.915 128.926 114.846 129.821 114.184 130.082C114.234 129.556 114.174 129.026 114.009 128.525C113.843 128.024 113.576 127.563 113.223 127.17L113.208 127.155C113.208 127.084 113.208 127.017 113.208 126.946C113.188 125.787 113.399 124.636 113.828 123.559C114.257 122.483 114.896 121.502 115.708 120.676C116.519 119.849 117.487 119.193 118.554 118.745C119.622 118.296 120.768 118.066 121.925 118.066C123.083 118.066 124.229 118.296 125.296 118.745C126.363 119.193 127.331 119.849 128.143 120.676C128.954 121.502 129.593 122.483 130.022 123.559C130.451 124.636 130.662 125.787 130.642 126.946H130.64Z" fill="black"/>
<path d="M125.534 113.084C124.21 112.46 122.704 112.342 121.3 112.752C120.594 112.961 119.929 113.301 119.213 113.472C117.684 113.842 115.901 113.441 114.589 114.337C113.86 114.847 113.422 115.653 113.014 116.436L111.995 118.381C111.44 119.445 110.879 120.526 110.647 121.698C110.416 122.869 110.556 124.18 111.297 125.122C111.837 125.808 112.635 126.239 113.221 126.885C113.572 127.277 113.838 127.738 114.003 128.239C114.168 128.739 114.228 129.269 114.179 129.793C114.844 129.538 114.907 128.64 114.923 127.926C114.951 126.662 115.169 125.41 115.57 124.211C115.802 123.42 116.197 122.686 116.729 122.057C116.998 121.746 117.33 121.495 117.702 121.321C118.075 121.148 118.481 121.056 118.892 121.052C119.911 121.088 120.826 121.792 121.835 121.708C122.599 121.644 123.277 121.121 124.046 121.019C124.725 120.955 125.403 121.147 125.947 121.557C126.486 121.967 126.957 122.457 127.346 123.012C128.737 124.846 129.865 126.997 129.932 129.298C130.22 129.51 130.635 129.235 130.777 128.908C130.92 128.581 130.925 128.199 131.106 127.887C131.315 127.528 131.715 127.336 132.028 127.066C132.823 126.379 133.022 125.224 132.992 124.175C132.961 123.126 132.757 122.062 132.956 121.032C133.076 120.399 133.346 119.807 133.493 119.182C133.641 118.557 133.659 117.855 133.31 117.317C132.8 116.526 131.728 116.37 130.793 116.296C129.73 116.204 128.78 116.322 128.102 115.426C127.784 114.959 127.426 114.52 127.032 114.115C126.897 113.982 125.534 113.14 125.534 113.084Z" fill="#512E4E"/>
<path opacity="0.1" d="M97.8423 166.889L95.1799 161.96L94.3366 169.566C94.3366 169.566 94.8054 172.944 94.7111 173.462C94.6168 173.98 96.6321 178.623 96.6321 178.623C96.6321 178.623 103.289 190.498 106.008 191.11L115.193 184.537L112.757 181.44C112.757 181.44 111.914 181.111 111.702 181.44C111.702 181.44 107.18 173.648 106.711 173.084C106.242 172.52 106.334 171.395 106.334 171.395C106.334 171.395 105.631 170.645 105.865 169.941C106.1 169.236 104.507 166.795 104.507 166.795L105.96 165.435L97.8423 166.889Z" fill="black"/>
<path d="M95.32 161.398L94.6168 161.96L93.7735 169.566C93.7735 169.566 94.2423 172.944 94.148 173.462C94.0538 173.98 96.0716 178.623 96.0716 178.623C96.0716 178.623 102.726 190.498 105.445 191.11L114.632 184.537L112.194 181.44C112.194 181.44 111.351 181.111 111.139 181.44C111.139 181.44 106.617 173.648 106.148 173.084C105.679 172.52 105.774 171.395 105.774 171.395C105.774 171.395 105.07 170.645 105.305 169.941C105.539 169.236 103.944 166.795 103.944 166.795L105.396 165.435L95.32 161.398Z" fill="white"/>
<path opacity="0.1" d="M138.956 191.194C139.465 191.814 139.144 194.598 139.144 194.598L137.738 196.93C137.738 196.93 137.822 198.435 137.827 200.464L135.463 201.204C135.249 201.27 135.023 201.285 134.802 201.246C134.582 201.208 134.374 201.117 134.195 200.981C134.017 200.846 133.874 200.669 133.777 200.467C133.681 200.265 133.634 200.042 133.641 199.818L134.049 186.65L139.565 188.763C139.096 189.089 139.611 189.89 139.611 189.89C139.611 189.89 138.441 190.574 138.956 191.194Z" fill="black"/>
<path d="M139.239 190.911C139.748 191.531 139.427 194.317 139.427 194.317L138.021 196.649C138.021 196.649 138.105 198.152 138.113 200.183L135.705 200.936C135.496 201.001 135.274 201.015 135.058 200.977C134.842 200.939 134.639 200.85 134.464 200.717C134.29 200.584 134.149 200.412 134.055 200.214C133.961 200.015 133.915 199.798 133.921 199.578L134.332 186.369L139.85 188.482C139.379 188.809 139.893 189.607 139.893 189.607C139.893 189.607 138.729 190.294 139.239 190.911Z" fill="white"/>
<path d="M141.065 184.634C141.065 184.634 140.691 187.03 139.753 187.171C138.816 187.311 138.395 191.046 137.46 190.914C136.525 190.781 137.144 187.441 137.178 186.793C137.211 186.145 136.158 183.461 136.946 182.851C137.733 182.241 140.225 182.851 140.225 182.851L141.065 184.634Z" fill="#CF6F80"/>
<path opacity="0.1" d="M143.06 166.185L144.828 162.613C144.828 162.613 145.532 165.335 145.532 166.79C145.532 168.244 146.515 168.387 146.515 168.387C146.515 168.387 147.593 169.662 147.025 170.591C146.457 171.52 146.227 173.832 146.227 173.832C146.227 173.832 146.413 178.243 145.57 178.853C144.727 179.463 144.551 180.92 144.551 180.92C144.551 180.92 143.002 183.688 143.05 184.346C143.099 185.004 140.895 189.462 140.895 189.462C140.895 189.462 141.972 183.923 135.692 181.529C135.692 181.529 135.644 179.649 136.113 179.133C136.581 178.618 137.313 178.383 136.854 175.778C136.395 173.173 136.721 170.06 136.721 169.435C136.721 168.81 138.128 164.912 138.128 164.912L143.06 166.185Z" fill="black"/>
<path d="M143.825 162.102L145.369 162.613C145.369 162.613 146.074 165.335 146.074 166.79C146.074 168.244 147.058 168.387 147.058 168.387C147.058 168.387 148.136 169.662 147.567 170.591C146.999 171.52 146.772 173.832 146.772 173.832C146.772 173.832 146.958 178.243 146.115 178.853C145.272 179.463 145.083 180.92 145.083 180.92C145.083 180.92 143.537 183.688 143.585 184.346C143.634 185.004 141.427 189.462 141.427 189.462C141.427 189.462 142.507 183.923 136.225 181.529C136.225 181.529 136.179 179.649 136.648 179.133C137.116 178.618 137.848 178.383 137.389 175.778C136.93 173.173 137.256 170.06 137.256 169.435C137.256 168.81 138.663 164.912 138.663 164.912L143.825 162.102Z" fill="white"/>
<path opacity="0.1" d="M109.723 254.687C109.723 254.687 112.184 253.139 113.799 254.264C115.414 255.389 109.723 254.687 109.723 254.687Z" fill="black"/>
<path opacity="0.1" d="M128.846 249.898C128.846 249.898 131.025 249.618 132.854 251.59C134.683 253.562 128.846 249.898 128.846 249.898Z" fill="black"/>
<g opacity="0.1">
<path opacity="0.1" d="M132.034 126.507C131.72 126.778 131.318 126.971 131.109 127.331C130.93 127.64 130.925 128.02 130.783 128.352C130.64 128.683 130.225 128.954 129.937 128.745C129.87 126.448 128.739 124.292 127.351 122.455C126.962 121.901 126.491 121.41 125.952 121.001C125.407 120.59 124.728 120.398 124.049 120.463C123.284 120.567 122.612 121.088 121.84 121.152C120.821 121.238 119.906 120.532 118.895 120.496C118.484 120.5 118.078 120.592 117.706 120.766C117.333 120.94 117.002 121.191 116.734 121.504C116.202 122.132 115.807 122.864 115.575 123.655C115.175 124.853 114.956 126.106 114.928 127.369C114.912 128.081 114.846 128.969 114.189 129.235C114.204 129.423 114.204 129.612 114.189 129.801C114.851 129.546 114.918 128.648 114.933 127.933C114.961 126.67 115.179 125.417 115.58 124.218C115.813 123.428 116.207 122.694 116.739 122.065C117.007 121.753 117.339 121.502 117.711 121.329C118.084 121.156 118.489 121.064 118.9 121.06C119.919 121.095 120.836 121.8 121.845 121.715C122.609 121.652 123.287 121.129 124.054 121.027C124.733 120.962 125.412 121.154 125.957 121.565C126.496 121.974 126.968 122.465 127.356 123.019C128.744 124.854 129.876 127.005 129.942 129.306C130.23 129.518 130.645 129.242 130.788 128.916C130.93 128.589 130.935 128.206 131.114 127.895C131.323 127.535 131.725 127.344 132.039 127.073C132.834 126.387 133.032 125.231 133.002 124.183C133.002 124.15 133.002 124.116 133.002 124.086C132.953 124.994 132.711 125.92 132.034 126.507Z" fill="black"/>
<path opacity="0.1" d="M113.226 126.326C112.64 125.68 111.84 125.249 111.302 124.565C110.85 123.96 110.591 123.231 110.561 122.476C110.481 123.42 110.744 124.361 111.302 125.127C111.84 125.813 112.64 126.244 113.226 126.89C113.788 127.521 114.126 128.322 114.186 129.166C114.225 128.652 114.16 128.136 113.995 127.648C113.83 127.16 113.569 126.71 113.226 126.326V126.326Z" fill="black"/>
<path opacity="0.1" d="M133.499 118.623C133.348 119.248 133.081 119.843 132.958 120.473C132.886 120.894 132.859 121.322 132.879 121.749C132.888 121.505 132.914 121.263 132.958 121.024C133.081 120.391 133.348 119.799 133.499 119.174C133.586 118.829 133.615 118.472 133.583 118.118C133.567 118.288 133.539 118.457 133.499 118.623V118.623Z" fill="black"/>
</g>
<path opacity="0.1" d="M63.8167 265.062C77.5275 265.062 88.6423 263.274 88.6423 261.069C88.6423 258.863 77.5275 257.076 63.8167 257.076C50.1059 257.076 38.9911 258.863 38.9911 261.069C38.9911 263.274 50.1059 265.062 63.8167 265.062Z" fill="#00ADE5"/>
<path d="M64.6167 184.576H63.0192V220.595H64.6167V184.576Z" fill="#535461"/>
<path d="M74.655 220.485L74.5556 222.108L74.4129 224.404L74.3543 225.358L74.2142 227.655L74.153 228.609L74.0104 230.905L72.4002 256.948C72.3302 258.068 71.8365 259.12 71.0195 259.889C70.2026 260.658 69.1238 261.086 68.0027 261.086H59.6307C58.5099 261.086 57.4314 260.658 56.6148 259.889C55.7983 259.12 55.3051 258.068 55.2358 256.948L53.6332 230.887L53.4905 228.591L53.4319 227.637L53.2893 225.34L53.2307 224.386L53.088 222.09L52.9861 220.467C52.9684 220.155 53.0146 219.842 53.1219 219.548C53.2291 219.255 53.3952 218.986 53.61 218.759C53.8247 218.531 54.0835 218.351 54.3705 218.227C54.6575 218.104 54.9667 218.04 55.2791 218.041H72.4027C72.7139 218.043 73.0213 218.11 73.3058 218.236C73.5903 218.362 73.846 218.546 74.057 218.775C74.2681 219.004 74.43 219.274 74.5329 219.568C74.6357 219.862 74.6772 220.174 74.655 220.485V220.485Z" fill="#3F3D56"/>
<path d="M74.5556 222.108L74.4129 224.396H53.2205L53.0778 222.108H74.5556Z" fill="#9D9CB5"/>
<path d="M74.3543 225.351L74.2142 227.642H53.4218L53.2791 225.351H74.3543Z" fill="#9D9CB5"/>
<path d="M74.153 228.599L74.0129 230.887H53.623L53.4803 228.599H74.153Z" fill="#9D9CB5"/>
<path d="M50.6396 198.076C59.9415 204.817 63.8243 215.359 63.8243 215.359C63.8243 215.359 52.6141 214.974 43.3096 208.233C34.0051 201.492 30.1299 190.952 30.1299 190.952C30.1299 190.952 41.3351 191.335 50.6396 198.076Z" fill="#00ADE5"/>
<path d="M30.1223 190.952C30.1223 190.952 41.7606 197.42 45.4931 202.775C49.2256 208.131 63.8243 215.359 63.8243 215.359" stroke="#535461" stroke-width="2" stroke-miterlimit="10"/>
<path d="M56.6447 184.497C61.7071 188.163 63.8243 193.901 63.8243 193.901C63.8243 193.901 57.7224 193.692 52.6574 190.026C47.5924 186.359 45.4803 180.618 45.4803 180.618C45.4803 180.618 51.5797 180.828 56.6447 184.497Z" fill="#00ADE5"/>
<path d="M45.4803 180.618C45.4803 180.618 51.8141 184.139 53.8447 187.053C55.8753 189.967 63.8243 193.901 63.8243 193.901" stroke="#535461" stroke-width="2" stroke-miterlimit="10"/>
<path d="M71.1747 193.61C65.3581 200.012 64.1275 208.378 64.1275 208.378C64.1275 208.378 72.3288 206.363 78.1403 199.959C83.9518 193.554 85.1875 185.191 85.1875 185.191C85.1875 185.191 76.9913 187.209 71.1747 193.61Z" fill="#00ADE5"/>
<path d="M85.1926 185.193C85.1926 185.193 77.6155 191.756 75.6894 196.277C73.7632 200.798 64.1275 208.378 64.1275 208.378" stroke="#535461" stroke-width="2" stroke-miterlimit="10"/>
<path d="M284.694 191.358C284.694 191.358 280.488 170.4 282.098 167.792C282.098 167.792 282.156 165.368 282.06 162.279C282.06 162.161 282.06 162.044 282.06 161.924C282.343 162.113 282.638 162.283 282.944 162.434C284.427 163.197 286.13 163.418 287.759 163.057L286.485 161.636C286.179 161.296 285.861 160.929 285.795 160.48C285.728 160.031 285.912 159.63 286.07 159.23C287.28 156.168 287.344 152.318 285.012 149.98C283.043 148.016 282.564 145.48 280.426 143.686C278.865 142.372 278.006 140.446 277.196 138.583C276.511 137.009 275.82 135.422 275.428 133.753C275.122 132.449 275 131.1 274.579 129.827C274.159 128.553 273.372 127.316 272.141 126.747C271.703 126.545 271.216 126.431 270.816 126.163C270.291 125.808 269.975 125.231 269.596 124.726C267.667 122.175 261.209 123.677 258.151 124.713C257.32 124.974 256.55 125.401 255.889 125.969L255.917 125.923C255.94 125.884 255.968 125.846 255.993 125.808C255.659 126.079 255.37 126.402 255.137 126.765C254.691 127.472 254.505 128.296 254.133 129.061C253.685 129.967 251.191 132.495 252.263 133.513C252.338 133.582 252.425 133.637 252.518 133.677C252.921 133.844 253.364 133.889 253.792 133.804L253.746 133.914C253.38 134.812 253.192 135.773 253.193 136.744C253.193 140.936 256.645 144.334 260.908 144.334C261.709 144.335 262.506 144.212 263.27 143.969C263.288 144.066 263.303 144.163 263.321 144.26C263.321 144.298 263.333 144.337 263.339 144.375L263.203 144.564C263.197 144.552 263.189 144.541 263.181 144.531L259.181 150.128C258.569 150.56 255.048 153.111 254.849 155.025C254.64 157.119 254.431 159.571 254.431 159.571L254.403 160.097C254.229 160.243 254.024 160.35 253.804 160.409C253.584 160.469 253.354 160.48 253.13 160.441C251.881 160.237 251.881 165.034 251.881 165.034C251.881 165.034 251.051 165.8 250.48 165.136C249.909 164.473 248.401 166.721 248.401 166.721L238.949 167.129L238.732 167.142L238.223 165.562C238.168 165.396 238.049 165.257 237.893 165.178C237.737 165.098 237.556 165.083 237.389 165.136C237.35 165.149 237.312 165.165 237.275 165.185L237.239 165.205L237.173 165.251L237.14 165.282C237.121 165.298 237.104 165.316 237.089 165.335L237.058 165.371L237.043 165.386C236.984 165.468 236.945 165.562 236.929 165.661C236.913 165.76 236.921 165.862 236.951 165.958L237.389 167.313C235.565 167.68 233.7 168.716 235.221 171.568L227.512 170.142L230.006 172.239L242.882 174.901C242.712 175.207 242.824 175.651 243.356 176.276C245.649 178.973 249.828 179.705 251.509 179.894C251.953 180.889 252.508 181.83 253.163 182.7L253.017 185.387C253.017 185.387 248.76 205.865 247.98 206.904C248.374 206.457 248.734 205.982 249.058 205.482C247.823 209.69 246.095 215.448 245.642 216.311C244.913 217.689 244.238 223.264 245.068 223.621C245.323 223.73 246.052 223.677 247.091 223.598V224.06L247.045 241.56C247.045 241.56 247.254 252.294 246.681 253.317C246.108 254.34 245.955 256.486 245.955 256.486C245.955 256.486 243.662 260.719 241.845 262.421C241.833 262.434 241.819 262.446 241.805 262.457L241.749 262.059C241.749 262.059 239.565 264.819 234.735 264.664C234.735 264.664 231.828 266.557 236.138 266.659C240.449 266.761 245.955 266.506 245.955 266.506C245.955 266.506 249.8 260.637 253.02 261.403V265.85H254.006V261.331C254.463 261.03 254.855 260.639 255.156 260.181C255.458 259.724 255.664 259.21 255.761 258.67C255.846 258.114 255.784 257.546 255.582 257.021C255.38 256.496 255.045 256.033 254.61 255.677C254.414 255.5 254.257 255.285 254.149 255.044C254.041 254.804 253.983 254.543 253.981 254.279L253.945 254.31C253.945 254.22 253.922 254.129 253.912 254.034C253.629 251.738 253.275 247 254.526 243.494C256.24 238.687 256.76 231.992 255.512 228.007C255.109 226.733 254.778 225.437 254.521 224.126C254.49 223.96 254.462 223.802 254.437 223.654C255.29 223.77 256.135 223.94 256.967 224.164C259.858 224.963 266.184 225.111 271.586 225.067C271.598 225.215 271.614 225.371 271.632 225.527C271.728 226.609 271.929 227.678 272.233 228.721C272.911 230.762 273.221 239.761 273.221 239.761C273.221 239.761 274.095 247.161 273.619 250.171C273.364 251.845 273.109 253.526 272.964 255.216V255.249C272.964 255.249 271.532 259.331 270.485 261.548C270.46 261.604 270.432 261.661 270.406 261.714C270.127 261.74 269.852 261.8 269.588 261.895C269.588 261.895 268.184 264.702 266.786 265.166C265.387 265.631 265.851 267.159 269.018 266.598C272.184 266.036 276.967 265.577 276.967 265.577L277.173 262.714L278.146 261.495L277.891 264.35L278.928 264.146L278.791 260.673L280.383 258.678C280.383 258.678 282.307 256.963 279.448 253.59V253.664C279.418 253.616 279.39 253.565 279.356 253.516V253.501C278.883 252.766 278.505 251.396 279.196 248.964C280.444 244.571 281.17 240.583 281.17 240.583C281.17 240.583 283.958 229.9 280.607 224.845H280.755C280.412 224.134 280.169 223.379 280.034 222.6C280.017 222.508 280.002 222.414 279.988 222.317C282.467 222.174 284.9 221.725 286.885 220.755C286.877 220.745 285.683 195.394 284.694 191.358ZM253.221 173.676V173.727L252.712 173.752L253.221 173.676ZM251.474 173.918C251.39 173.937 251.311 173.974 251.244 174.028C251.025 174.338 250.888 174.699 250.844 175.077L250.049 174.898C250.049 174.898 249.491 174.778 248.689 174.643L248.309 174.26C249.354 174.173 250.439 174.046 251.474 173.918V173.918Z" fill="url(#paint1_linear_2_3)"/>
<path d="M277.774 260.709L277.471 264.324L278.488 264.12L278.335 260.199L277.774 260.709Z" fill="#1D2366"/>
<path d="M254.582 243.543C253.356 247.038 253.703 251.756 253.978 254.047C254.08 254.894 254.174 255.409 254.174 255.409C254.174 255.409 252.342 259.589 252.189 259.747C252.037 259.905 246.798 263.107 246.798 263.107L243.137 265.248C243.137 265.248 239.423 263.617 241.203 263.056C241.567 262.91 241.895 262.686 242.164 262.4C243.947 260.704 246.187 256.486 246.187 256.486C246.187 256.486 246.34 254.345 246.9 253.327C247.461 252.309 247.257 241.611 247.257 241.611L247.3 224.172V221.899L254.268 221.95C254.312 222.721 254.413 223.489 254.569 224.246C254.819 225.553 255.143 226.844 255.54 228.114C256.768 232.092 256.258 238.754 254.582 243.543Z" fill="#FFB0B1"/>
<path opacity="0.1" d="M254.174 255.409C254.174 255.409 252.342 259.589 252.189 259.747C252.037 259.905 246.798 263.107 246.798 263.107L243.137 265.248C243.137 265.248 239.423 263.617 241.203 263.056C241.567 262.91 241.895 262.686 242.164 262.4L242.322 263.515L243.542 263.464L253.988 254.052C254.08 254.894 254.174 255.409 254.174 255.409Z" fill="black"/>
<path d="M254.047 254.289L243.542 263.765L242.322 263.817L242.067 262.031C242.067 262.031 239.932 264.781 235.188 264.628C235.188 264.628 232.34 266.513 236.561 266.615C240.783 266.718 246.174 266.462 246.174 266.462C246.174 266.462 249.94 260.594 253.091 261.359V265.791H254.059V261.319C254.51 261.015 254.894 260.624 255.189 260.168C255.484 259.712 255.684 259.201 255.777 258.665C255.861 258.114 255.801 257.55 255.604 257.028C255.408 256.506 255.08 256.043 254.653 255.685C254.462 255.506 254.31 255.29 254.206 255.05C254.102 254.81 254.048 254.551 254.047 254.289V254.289Z" fill="#1D2366"/>
<path d="M278.742 248.993C278.065 251.416 278.434 252.781 278.898 253.514V253.529C279.493 254.433 279.906 255.444 280.116 256.507L280.156 256.736L275.377 263.714L272.783 264.735C272.783 264.735 268.612 263.309 269.374 262.901C269.565 262.801 269.863 262.27 270.205 261.538C271.224 259.331 272.63 255.259 272.63 255.259V255.226C272.778 253.544 273.012 251.868 273.272 250.199C273.739 247.196 272.883 239.825 272.883 239.825C272.883 239.825 272.577 230.862 271.914 228.823C271.615 227.787 271.417 226.724 271.321 225.649C271.183 224.373 271.153 223.322 271.153 223.322C271.153 223.322 273.899 219.495 278.934 223.628C279.336 223.958 279.69 224.343 279.986 224.771C283.463 229.726 280.663 240.642 280.663 240.642C280.663 240.642 279.963 244.612 278.742 248.993Z" fill="#FFB0B1"/>
<path opacity="0.1" d="M280.164 256.736L275.384 263.714L272.791 264.735C272.791 264.735 268.62 263.309 269.382 262.901C269.573 262.801 269.871 262.27 270.212 261.538C271.978 261.523 272.893 263.207 272.893 263.207L275.13 262.849C275.13 262.849 278.08 257.042 278.742 256.688C279.405 256.333 278.844 254.037 278.844 254.037V253.452C278.862 253.473 278.877 253.496 278.898 253.516V253.532C279.493 254.436 279.906 255.447 280.116 256.509L280.164 256.736Z" fill="black"/>
<path d="M273.046 263.357C273.046 263.357 271.772 261.015 269.331 261.88C269.331 261.88 267.958 264.687 266.584 265.141C265.211 265.595 265.67 267.126 268.773 266.567C271.876 266.008 276.554 265.546 276.554 265.546L276.758 262.691L279.912 258.668C279.912 258.668 281.792 256.961 278.995 253.6V254.185C278.995 254.185 279.555 256.481 278.893 256.836C278.23 257.19 275.29 263 275.29 263L273.046 263.357Z" fill="#1D2366"/>
<path opacity="0.1" d="M254.276 221.944C254.32 222.716 254.421 223.484 254.577 224.241C251.708 223.82 249.045 224.029 247.3 224.167V221.893L254.276 221.944Z" fill="black"/>
<path opacity="0.1" d="M280.269 225.407C280.269 225.407 276.192 225.606 271.331 225.647C271.193 224.371 271.163 223.32 271.163 223.32C271.163 223.32 273.909 219.492 278.944 223.626C279.346 223.956 279.701 224.34 279.996 224.769C280.075 224.986 280.166 225.199 280.269 225.407V225.407Z" fill="black"/>
<path d="M280.269 224.948C280.269 224.948 262.414 225.812 256.972 224.284C251.53 222.756 246.136 224.08 245.323 223.725C244.51 223.371 245.17 217.816 245.884 216.441C246.597 215.066 250.51 201.158 250.51 201.158L254.276 181.496L258.243 180.402L258.523 180.322L265.435 178.414L270.5 177.013C270.5 177.013 280.572 216.39 279.708 219.293C279.394 220.405 279.344 221.575 279.56 222.71C279.692 223.485 279.931 224.238 280.269 224.948V224.948Z" fill="#1D2366"/>
<path d="M241.15 168.05C241.15 168.05 237.583 171.877 240.284 174.01C242.984 176.143 244.76 174.214 244.76 174.214L241.15 168.05Z" fill="#C7DAF5"/>
<path opacity="0.1" d="M241.15 168.05C241.15 168.05 237.583 171.877 240.284 174.01C242.984 176.143 244.76 174.214 244.76 174.214L241.15 168.05Z" fill="black"/>
<path d="M269.968 142.887C269.968 142.887 269.55 143.285 268.921 143.872C268.024 144.712 266.696 145.939 265.519 146.967C263.889 148.388 262.544 149.432 263.025 148.541C263.507 147.651 263.415 146.1 263.175 144.648C263.158 144.551 263.142 144.454 263.124 144.36C262.926 143.293 262.663 142.24 262.337 141.206C262.337 141.206 264.972 137.797 266.429 136.453C266.972 135.942 267.351 135.733 267.374 136.088C267.4 136.565 267.756 137.619 268.2 138.736C268.212 138.772 268.225 138.805 268.24 138.841C268.536 139.606 268.87 140.392 269.163 141.071C269.611 142.112 269.968 142.887 269.968 142.887Z" fill="#FFB0B1"/>
<path opacity="0.1" d="M268.24 138.841C267.993 140.174 267.392 141.417 266.501 142.438C265.61 143.46 264.462 144.223 263.175 144.648C262.973 143.483 262.693 142.333 262.337 141.206C262.337 141.206 267.298 134.789 267.374 136.088C267.392 136.58 267.779 137.672 268.24 138.841Z" fill="black"/>
<path opacity="0.1" d="M262.681 146.363L263.323 145.457C263.323 145.457 263.749 148.054 265.313 146.909C266.877 145.763 266.954 155.53 266.954 155.53L265.275 180.669L253.142 179.942L253.486 167.795L254.86 161.671L258.256 152.769L260.276 149.827L262.681 146.363Z" fill="black"/>
<path d="M266.954 155.686L265.425 178.417L265.265 180.825L258.5 180.419L258.246 180.404L253.15 180.098L253.494 167.948L254.867 161.824L258.263 152.922L260.284 149.98L262.689 146.503L263.331 145.6C263.331 145.6 263.756 148.197 265.321 147.051L265.354 147.028C266.883 146.059 266.954 155.686 266.954 155.686Z" fill="#1D2366"/>
<path d="M255.038 159.696C255.038 159.696 254.429 160.972 253.206 160.766C251.983 160.559 251.986 165.358 251.986 165.358C251.986 165.358 251.173 166.124 250.612 165.46C250.052 164.797 248.574 167.04 248.574 167.04L239.315 167.448C239.315 167.448 243.435 169.333 242.628 175.038C242.628 175.038 256.615 174.171 257.074 172.847C257.532 171.522 255.038 159.696 255.038 159.696Z" fill="white"/>
<path opacity="0.03" d="M255.038 159.696C255.038 159.696 254.429 160.972 253.206 160.766C251.983 160.559 251.986 165.358 251.986 165.358C251.986 165.358 251.173 166.124 250.612 165.46C250.052 164.797 248.574 167.04 248.574 167.04L239.315 167.448C239.315 167.448 243.435 169.333 242.628 175.038C242.628 175.038 256.615 174.171 257.074 172.847C257.532 171.522 255.038 159.696 255.038 159.696Z" fill="black"/>
<path d="M228.131 170.446L230.572 172.533L250.663 176.761L248.172 174.214L228.131 170.446Z" fill="white"/>
<path d="M262.719 147.166C262.386 147.677 261.43 150.289 260.633 152.57C259.968 154.471 259.412 156.142 259.412 156.142C259.412 156.142 258.116 164.598 257.453 166.126C256.791 167.654 257.15 173.615 257.15 173.615L254.681 188.334C254.681 188.334 253.563 195.925 251.835 200.459C250.131 204.921 248.233 207.013 248.174 207.08C248.938 206.044 253.104 185.647 253.104 185.647L254.48 159.924C254.48 159.924 254.681 157.479 254.885 155.39C255.089 153.3 259.216 150.447 259.216 150.447L263.196 144.781C263.596 145.316 263.328 146.25 262.719 147.166Z" fill="white"/>
<path d="M252.342 180.226C252.342 180.226 246.482 179.97 243.644 176.557C240.806 173.143 250.205 175.194 250.205 175.194L252.648 175.755L252.342 180.226Z" fill="#FFB0B1"/>
<path opacity="0.1" d="M279.708 219.296C279.394 220.408 279.344 221.578 279.56 222.712C273.168 223.167 266.33 221.437 266.33 221.437C265.056 222.61 261.7 224.34 261.7 224.34L259.871 201.632C258.702 198.571 258.243 182.529 258.243 182.529C258.243 182.529 258.347 181.69 258.498 180.432C258.498 180.402 258.498 180.368 258.51 180.338C258.967 176.824 259.871 170.229 260.314 169.338C260.926 168.114 258.434 164.856 258.434 164.856L259.568 155.173L259.705 154.004C262.095 152.935 263.927 149.521 263.927 149.521L265.333 147.054C266.862 146.072 266.941 155.698 266.941 155.698L265.412 178.429L270.477 177.029C270.477 177.029 280.572 216.392 279.708 219.296Z" fill="black"/>
<path d="M286.269 220.865C279.3 224.33 266.635 221.12 266.635 221.12C265.361 222.294 262.006 224.024 262.006 224.024L260.174 201.316C259.007 198.254 258.549 182.213 258.549 182.213C258.549 182.213 260.021 170.244 260.633 169.022C260.811 168.665 260.725 168.134 260.513 167.563C259.473 164.842 259.091 161.914 259.397 159.018L259.886 154.856L260.021 153.69C262.414 152.619 264.246 149.205 264.246 149.205L265.519 146.97L267.863 142.852L268.974 140.902L269.163 141.073L270.602 142.38C270.602 142.38 271.214 142.89 272.131 143.655C274.126 145.339 277.573 148.304 279.351 150.118C280.916 151.715 281.41 157.928 281.553 162.605C281.647 165.685 281.591 168.098 281.591 168.098C280.014 170.698 284.139 191.572 284.139 191.572C285.099 195.606 286.269 220.865 286.269 220.865Z" fill="white"/>
<path opacity="0.03" d="M272.893 149.154C272.893 149.154 268.111 158.27 268.666 161.735C269.221 165.2 270.801 169.122 270.039 170.038C269.777 170.385 269.439 170.666 269.051 170.861C268.662 171.055 268.234 171.157 267.8 171.158C267.035 171.209 264.997 172.635 264.997 172.788C264.997 172.941 263.114 172.941 261.43 173.656C259.746 174.37 257.26 174.776 257.26 174.776C257.26 174.776 252.419 174.623 251.968 175.082C251.517 175.541 251.053 178.289 252.019 180.481C252.984 182.672 254.057 184.308 254.867 184.606C255.677 184.905 260.819 183.18 264.99 182.772C269.16 182.364 273.688 179.054 273.688 179.054C273.688 179.054 278.674 177.268 279.548 174.265C280.421 171.262 278.48 154.757 278.48 154.757C278.48 154.757 277.013 147.064 272.893 149.154Z" fill="black"/>
<path opacity="0.03" d="M272.281 148.388C272.281 148.388 267.499 157.507 268.06 160.97C268.62 164.432 270.195 168.356 269.43 169.275C269.169 169.622 268.832 169.904 268.443 170.098C268.055 170.293 267.627 170.394 267.193 170.395C266.429 170.446 264.391 171.872 264.391 172.025C264.391 172.178 262.508 172.178 260.824 172.89C259.14 173.602 256.653 174.01 256.653 174.01C256.653 174.01 251.812 173.857 251.364 174.316C250.916 174.776 250.447 177.526 251.415 179.715C252.383 181.904 253.453 183.542 254.263 183.841C255.074 184.139 260.215 182.415 264.386 182.009C268.556 181.603 273.084 178.289 273.084 178.289C273.084 178.289 278.067 176.503 278.931 173.502C279.795 170.502 277.863 153.991 277.863 153.991C277.863 153.991 276.401 146.301 272.281 148.388Z" fill="black"/>
<path d="M272.742 148.695C272.742 148.695 267.96 157.813 268.521 161.276C269.081 164.738 270.656 168.662 269.894 169.578C269.633 169.926 269.295 170.209 268.906 170.404C268.518 170.599 268.089 170.701 267.654 170.701C266.89 170.752 264.852 172.178 264.852 172.329C264.852 172.479 262.972 172.482 261.285 173.196C259.598 173.911 257.114 174.316 257.114 174.316C257.114 174.316 252.274 174.163 251.823 174.623C251.372 175.082 250.908 177.832 251.874 180.021C252.839 182.211 253.912 183.849 254.722 184.147C255.532 184.446 260.674 182.721 264.844 182.313C269.015 181.904 273.542 178.595 273.542 178.595C273.542 178.595 278.528 176.809 279.402 173.806C280.276 170.803 278.347 154.298 278.347 154.298C278.347 154.298 276.86 146.618 272.742 148.695Z" fill="white"/>
<path opacity="0.1" d="M272.638 173.153C272.638 173.153 268.816 172.387 270.146 173.663C271.476 174.939 271.469 176.056 273.097 176.005C274.725 175.954 272.638 173.153 272.638 173.153Z" fill="black"/>
<path opacity="0.1" d="M279.097 200.602C279.097 200.602 277.369 201.773 280.674 204.472C283.978 207.171 279.097 200.602 279.097 200.602Z" fill="black"/>
<path opacity="0.1" d="M275.8 210.228C275.8 210.381 275.188 215.841 277.476 217.206C279.764 218.571 275.8 210.228 275.8 210.228Z" fill="black"/>
<path d="M239.473 167.435C237.629 167.499 233.644 168.063 235.71 171.923C237.537 175.339 240.607 173.056 242.335 171.323C241.913 169.708 240.889 168.316 239.473 167.435V167.435Z" fill="#FFB0B1"/>
<path d="M242.358 171.294L242.435 171.214L242.358 171.294Z" fill="#FFB0B1"/>
<path opacity="0.1" d="M272.131 143.811C270.174 145.151 268.533 146.281 268.212 146.516C267.336 147.166 265.665 150.986 264.587 152.935C263.728 154.504 260.939 154.907 259.886 155.007L260.021 153.841C262.414 152.769 264.246 149.355 264.246 149.355L268.974 141.053L270.602 142.535C270.602 142.535 271.214 143.046 272.131 143.811Z" fill="black"/>
<path d="M272.131 143.658C270.174 144.997 268.533 146.128 268.212 146.365C267.336 147.013 265.665 150.833 264.587 152.782C263.728 154.351 260.939 154.754 259.886 154.854L260.021 153.688C262.414 152.616 264.246 149.202 264.246 149.202L268.974 140.9L270.602 142.377C270.602 142.377 271.214 142.882 272.131 143.658Z" fill="#DCE7FF"/>
<path d="M268.365 137.157C268.366 138.688 267.903 140.184 267.035 141.446C266.011 142.938 264.487 144.012 262.739 144.475C260.992 144.937 259.136 144.757 257.51 143.967C255.884 143.177 254.594 141.829 253.875 140.168C253.156 138.507 253.056 136.643 253.592 134.914C254.128 133.185 255.265 131.706 256.797 130.745C258.329 129.784 260.154 129.405 261.941 129.676C263.729 129.947 265.359 130.851 266.538 132.224C267.717 133.596 268.365 135.347 268.365 137.157V137.157Z" fill="#FFB0B1"/>
<path opacity="0.1" d="M281.553 162.608C280.518 161.97 279.675 161.064 279.114 159.985C278.689 159.143 278.406 158.171 277.68 157.574C277.025 157.038 276.151 156.908 275.336 156.668C272.656 155.874 270.409 153.425 270.325 150.629C270.284 149.312 270.694 147.998 270.508 146.694C270.402 145.956 270.109 145.258 269.657 144.666C269.432 144.383 269.186 144.117 268.921 143.872C268.564 143.536 268.189 143.209 267.863 142.852C267.658 142.631 267.478 142.387 267.328 142.125C267.207 141.91 267.109 141.683 267.035 141.448C266.526 139.887 266.989 138.035 266.429 136.455L266.398 136.368C266.187 135.807 265.756 135.246 265.158 135.202C264.559 135.159 264.047 135.657 263.476 135.879C262.281 136.343 260.992 135.552 259.996 134.746C259 133.939 257.876 133.018 256.61 133.197C255.772 133.317 255.109 133.888 254.337 134.184C254.163 134.252 253.983 134.304 253.8 134.34C254.453 132.708 255.653 131.356 257.194 130.514C258.735 129.672 260.521 129.394 262.245 129.728C263.968 130.062 265.522 130.986 266.639 132.342C267.756 133.698 268.366 135.401 268.365 137.159C268.366 137.69 268.311 138.22 268.2 138.739C268.212 138.774 268.225 138.808 268.24 138.843C268.536 139.609 268.87 140.395 269.163 141.073L270.602 142.38C270.602 142.38 271.214 142.89 272.131 143.655C274.126 145.339 277.573 148.304 279.351 150.118C280.916 151.721 281.405 157.931 281.553 162.608Z" fill="black"/>
<path d="M254.248 129.523C254.612 128.78 254.793 127.949 255.229 127.244C255.868 126.224 256.984 125.571 258.131 125.175C261.125 124.142 267.451 122.642 269.341 125.175C269.713 125.685 270.021 126.252 270.536 126.604C270.928 126.872 271.402 126.987 271.833 127.188C273.038 127.755 273.807 128.99 274.218 130.25C274.628 131.51 274.75 132.863 275.051 134.161C275.435 135.828 276.111 137.407 276.783 138.976C277.576 140.828 278.416 142.75 279.945 144.059C282.032 145.845 282.493 148.373 284.429 150.333C286.722 152.66 286.648 156.499 285.466 159.548C285.311 159.949 285.135 160.367 285.196 160.794C285.257 161.22 285.573 161.607 285.871 161.947L287.125 163.363C284.159 164.08 280.804 162.529 279.423 159.806C278.997 158.964 278.714 157.995 277.986 157.395C277.333 156.859 276.457 156.732 275.644 156.492C272.964 155.696 270.717 153.244 270.633 150.447C270.592 149.133 271.002 147.819 270.816 146.518C270.713 145.775 270.419 145.072 269.963 144.477C269.262 143.561 268.205 142.946 267.634 141.926C266.669 140.219 267.402 138.001 266.707 136.169C266.493 135.608 266.065 135.047 265.466 135.003C264.867 134.96 264.355 135.458 263.782 135.68C262.59 136.144 261.3 135.356 260.304 134.547C259.308 133.738 258.184 132.819 256.916 133.001C256.077 133.118 255.418 133.689 254.646 133.988C254.075 134.207 252.918 134.404 252.419 133.922C251.364 132.949 253.807 130.431 254.248 129.523Z" fill="#591D4B"/>
<path opacity="0.1" d="M280.131 158.964C279.703 158.122 279.423 157.153 278.694 156.556C278.042 156.02 277.165 155.89 276.35 155.65C273.672 154.856 271.425 152.404 271.339 149.608C271.298 148.294 271.708 146.977 271.525 145.676C271.418 144.938 271.124 144.24 270.671 143.648C269.968 142.732 268.911 142.117 268.342 141.096C267.377 139.392 268.111 137.175 267.412 135.34C267.201 134.781 266.77 134.22 266.174 134.174C265.578 134.128 265.061 134.631 264.49 134.853C263.298 135.317 262.006 134.526 261.012 133.72C260.019 132.914 258.89 131.993 257.624 132.171C256.786 132.291 256.123 132.863 255.354 133.159C254.783 133.378 253.624 133.577 253.125 133.095C252.075 132.074 254.518 129.561 254.956 128.658C255.321 127.913 255.502 127.084 255.94 126.379C255.963 126.341 255.988 126.303 256.014 126.265C255.686 126.537 255.403 126.859 255.175 127.219C254.74 127.923 254.559 128.75 254.195 129.497C253.754 130.401 251.31 132.921 252.363 133.934C252.872 134.419 254.019 134.22 254.589 134.001C255.354 133.702 256.021 133.131 256.86 133.013C258.133 132.832 259.254 133.753 260.248 134.559C261.242 135.366 262.541 136.157 263.728 135.692C264.299 135.47 264.798 134.97 265.41 135.016C266.021 135.062 266.429 135.621 266.651 136.182C267.346 138.014 266.612 140.231 267.578 141.938C268.149 142.941 269.206 143.569 269.907 144.49C270.363 145.085 270.657 145.788 270.76 146.531C270.946 147.832 270.536 149.146 270.577 150.46C270.661 153.267 272.908 155.709 275.588 156.505C276.396 156.744 277.277 156.872 277.93 157.408C278.661 158.007 278.949 158.977 279.367 159.819C280.748 162.541 284.103 164.093 287.069 163.376L286.478 162.707C283.907 162.745 281.306 161.281 280.131 158.964Z" fill="black"/>
<path opacity="0.1" d="M262.567 147.319C262.233 147.83 261.277 150.442 260.48 152.723C259.733 152.432 259.056 150.578 259.056 150.578L263.035 144.908C263.443 145.47 263.175 146.401 262.567 147.319Z" fill="black"/>
<path d="M262.719 147.166C262.386 147.677 261.43 150.289 260.633 152.57C259.886 152.282 259.209 150.424 259.209 150.424L263.188 144.758C263.596 145.316 263.328 146.25 262.719 147.166Z" fill="#DCE7FF"/>
<path d="M239.58 173.232L237.374 166.264C237.348 166.182 237.338 166.096 237.345 166.011C237.352 165.926 237.376 165.843 237.416 165.766C237.455 165.69 237.509 165.623 237.574 165.568C237.64 165.512 237.715 165.471 237.797 165.445V165.445C237.961 165.394 238.139 165.409 238.292 165.489C238.444 165.568 238.56 165.704 238.612 165.868L240.819 172.829L240.6 174.286L239.58 173.232Z" fill="#BE8B87"/>
<path opacity="0.1" d="M237.583 165.652C237.748 165.599 237.926 165.615 238.079 165.694C238.233 165.774 238.348 165.911 238.401 166.075L240.607 173.035L240.442 174.128L240.602 174.296L240.821 172.839L238.602 165.879C238.549 165.715 238.434 165.578 238.282 165.499C238.129 165.419 237.951 165.404 237.787 165.455V165.455C237.649 165.5 237.529 165.59 237.448 165.71C237.491 165.687 237.536 165.667 237.583 165.652V165.652Z" fill="white"/>
<path d="M239.58 173.232L240.819 172.839L240.638 174.033L240.6 174.296L240.238 173.918L239.58 173.232Z" fill="#EFC8C4"/>
<path d="M240.238 173.918C240.259 173.891 240.286 173.868 240.317 173.852C240.335 173.841 240.355 173.835 240.377 173.835C240.398 173.835 240.419 173.841 240.437 173.852C240.454 173.873 240.468 173.896 240.48 173.921C240.497 173.949 240.52 173.973 240.547 173.991C240.574 174.009 240.605 174.021 240.638 174.025L240.6 174.281L240.238 173.918Z" fill="#727A9C"/>
<path d="M237.361 168.739C237.361 168.739 241.787 168.713 240.745 170.599C239.703 172.484 238.075 172.711 238.075 172.711L237.361 168.739Z" fill="#FFB0B1"/>
<path d="M209.838 84.1196H209.647C202.044 84.1196 195.32 88.1484 191.453 94.0933C187.585 88.1484 180.862 84.1196 173.259 84.1196H173.068C167.363 84.1741 161.909 86.4812 157.893 90.5398C153.876 94.5983 151.621 100.08 151.618 105.794C151.618 112.89 154.722 122.958 160.773 131.243C172.301 147.028 191.453 160.839 191.453 160.839C191.453 160.839 210.605 147.031 222.131 131.243C228.184 122.958 231.285 112.89 231.285 105.794C231.282 100.081 229.027 94.5991 225.012 90.5407C220.996 86.4822 215.543 84.1747 209.838 84.1196V84.1196ZM207.104 132.457C206.238 132.454 205.393 132.188 204.681 131.696C203.968 131.203 203.421 130.506 203.112 129.696H198.566C198.267 129.694 197.976 129.599 197.733 129.423C197.491 129.248 197.309 129.001 197.213 128.717L195.817 124.504L191.399 139.963C191.313 140.261 191.133 140.523 190.886 140.709C190.639 140.895 190.338 140.996 190.029 140.997H189.94C189.617 140.981 189.309 140.855 189.068 140.64C188.827 140.424 188.667 140.132 188.615 139.813L184.062 112.39L180.734 128.617C180.658 128.925 180.481 129.199 180.231 129.395C179.981 129.59 179.673 129.697 179.356 129.696H172.953C172.762 129.704 172.57 129.674 172.39 129.606C172.211 129.538 172.046 129.434 171.908 129.301C171.769 129.168 171.659 129.008 171.583 128.831C171.508 128.654 171.469 128.464 171.469 128.271C171.469 128.079 171.508 127.889 171.583 127.712C171.659 127.535 171.769 127.375 171.908 127.242C172.046 127.109 172.211 127.005 172.39 126.937C172.57 126.869 172.762 126.838 172.953 126.846H178.235L182.948 105.029C183.026 104.706 183.213 104.421 183.477 104.221C183.741 104.021 184.067 103.919 184.398 103.933C184.729 103.947 185.045 104.075 185.292 104.297C185.538 104.518 185.701 104.818 185.751 105.146L190.401 133.12L194.36 119.289C194.442 118.998 194.617 118.741 194.857 118.557C195.097 118.373 195.39 118.272 195.692 118.268H195.72C196.02 118.268 196.312 118.363 196.554 118.539C196.797 118.715 196.977 118.963 197.071 119.248L199.596 126.854H203.055C203.301 126.106 203.749 125.44 204.349 124.93C204.949 124.42 205.678 124.087 206.456 123.966C207.233 123.844 208.029 123.941 208.755 124.244C209.481 124.547 210.11 125.046 210.571 125.684C211.032 126.322 211.308 127.076 211.369 127.862C211.43 128.647 211.272 129.434 210.914 130.136C210.556 130.838 210.012 131.427 209.341 131.838C208.67 132.25 207.898 132.467 207.112 132.467L207.104 132.457Z" fill="#00ADE5"/>
</g>
<defs>
<linearGradient id="paint0_linear_2_3" x1="120.785" y1="268.705" x2="120.785" y2="111.703" gradientUnits="userSpaceOnUse">
<stop stop-color="#808080" stop-opacity="0.25"/>
<stop offset="0.54" stop-color="#808080" stop-opacity="0.12"/>
<stop offset="1" stop-color="#808080" stop-opacity="0.1"/>
</linearGradient>
<linearGradient id="paint1_linear_2_3" x1="56900.4" y1="118531" x2="56900.4" y2="37940.5" gradientUnits="userSpaceOnUse">
<stop stop-color="#808080" stop-opacity="0.25"/>
<stop offset="0.54" stop-color="#808080" stop-opacity="0.12"/>
<stop offset="1" stop-color="#808080" stop-opacity="0.1"/>
</linearGradient>
<clipPath id="clip0_2_3">
<rect width="281.54" height="199.713" fill="white" transform="translate(30 71)"/>
</clipPath>
</defs>
</svg>
