<svg width="342" height="342" viewBox="0 0 342 342" fill="none" xmlns="http://www.w3.org/2000/svg">
<rect width="342" height="342" fill="white"/>
<path d="M51.2172 265.446L50.6869 265.326C56.6004 239.021 71.4616 215.134 92.5327 198.064C108.463 185.18 127.41 176.562 147.589 173.023C167.769 169.485 188.516 171.141 207.879 177.837C227.241 184.533 244.582 196.048 258.267 211.297C271.952 226.547 281.532 245.03 286.105 265.005L285.575 265.126C273.057 210.148 224.887 171.752 168.433 171.752C112.718 171.752 63.422 211.156 51.2172 265.446Z" fill="#3F3D56"/>
<path d="M127.253 110.637C135.406 110.637 142.016 104.025 142.016 95.8696C142.016 87.7138 135.406 81.1022 127.253 81.1022C119.099 81.1022 112.489 87.7138 112.489 95.8696C112.489 104.025 119.099 110.637 127.253 110.637Z" fill="#FF6584"/>
<path d="M63.6479 262.091C64.1083 263.793 65.6854 264.848 65.6854 264.848C65.6854 264.848 66.516 263.142 66.0556 261.439C65.5951 259.737 64.018 258.683 64.018 258.683C64.018 258.683 63.1875 260.388 63.6479 262.091Z" fill="#3F3D56"/>
<path d="M64.3244 261.725C65.5879 262.955 65.7422 264.846 65.7422 264.846C65.7422 264.846 63.8481 264.743 62.5846 263.513C61.3212 262.283 61.1669 260.391 61.1669 260.391C61.1669 260.391 63.061 260.495 64.3244 261.725Z" fill="#00ADE5"/>
<path d="M98.7117 262.091C99.1722 263.793 100.749 264.848 100.749 264.848C100.749 264.848 101.58 263.142 101.119 261.439C100.659 259.737 99.0819 258.683 99.0819 258.683C99.0819 258.683 98.2513 260.388 98.7117 262.091Z" fill="#3F3D56"/>
<path d="M99.3883 261.725C100.652 262.955 100.806 264.846 100.806 264.846C100.806 264.846 98.9119 264.743 97.6485 263.513C96.385 262.283 96.2307 260.391 96.2307 260.391C96.2307 260.391 98.1248 260.495 99.3883 261.725Z" fill="#00ADE5"/>
<path d="M105.665 126.48L100.113 122.037L131.201 94.2725H210.032V118.705L158.959 153.133L105.665 126.48Z" fill="#3F3D56"/>
<path d="M224.405 109.847V94.8271H213.938V98.5054L210.032 94.2725L184.495 122.037L174.503 128.701L159.009 241.93L182.375 265.302H236.679V123.148L224.405 109.847Z" fill="#CCCCCC"/>
<path d="M184.495 122.037H100.113V265.302H184.495V122.037Z" fill="#F2F2F2"/>
<path d="M148.411 230.319H132.867V265.302H148.411V230.319Z" fill="#CCCCCC"/>
<path d="M116.212 240.314V234.761H109.551V240.314H115.657H116.212Z" fill="#3F3D56"/>
<path d="M115.657 244.756H109.551V250.309H116.212V244.756H115.657Z" fill="#3F3D56"/>
<path d="M127.315 234.761H120.654V240.314H127.315V234.761Z" fill="#3F3D56"/>
<path d="M127.315 244.757H120.654V250.309H127.315V244.757Z" fill="#3F3D56"/>
<path d="M161.734 240.314V234.761H155.073V240.314H161.179H161.734Z" fill="#3F3D56"/>
<path d="M161.179 244.756H155.073V250.309H161.734V244.756H161.179Z" fill="#3F3D56"/>
<path d="M172.837 234.761H166.176V240.314H172.837V234.761Z" fill="#3F3D56"/>
<path d="M172.837 244.757H166.176V250.309H172.837V244.757Z" fill="#3F3D56"/>
<path d="M208.367 129.256V123.703H201.705V129.256H207.812H208.367Z" fill="#3F3D56"/>
<path d="M207.812 133.698H201.705V139.251H208.367V133.698H207.812Z" fill="#3F3D56"/>
<path d="M219.47 123.703H212.808V129.256H219.47V123.703Z" fill="#3F3D56"/>
<path d="M219.47 133.698H212.808V139.251H219.47V133.698Z" fill="#3F3D56"/>
<path d="M208.367 160.352V154.799H201.705V160.352H207.812H208.367Z" fill="#3F3D56"/>
<path d="M207.812 164.794H201.705V170.347H208.367V164.794H207.812Z" fill="#3F3D56"/>
<path d="M219.47 154.799H212.808V160.352H219.47V154.799Z" fill="#3F3D56"/>
<path d="M219.47 164.795H212.808V170.347H219.47V164.795Z" fill="#3F3D56"/>
<path d="M208.367 191.449V185.896H201.705V191.449H207.812H208.367Z" fill="#3F3D56"/>
<path d="M207.812 195.891H201.705V201.444H208.367V195.891H207.812Z" fill="#3F3D56"/>
<path d="M219.47 185.896H212.808V191.449H219.47V185.896Z" fill="#3F3D56"/>
<path d="M219.47 195.891H212.808V201.444H219.47V195.891Z" fill="#3F3D56"/>
<path d="M208.367 222.545V216.992H201.705V222.545H207.812H208.367Z" fill="#3F3D56"/>
<path d="M207.812 226.987H201.705V232.54H208.367V226.987H207.812Z" fill="#3F3D56"/>
<path d="M219.47 216.992H212.808V222.545H219.47V216.992Z" fill="#3F3D56"/>
<path d="M219.47 226.987H212.808V232.54H219.47V226.987Z" fill="#3F3D56"/>
<path d="M173.948 129.256H109.551V142.583H173.948V129.256Z" fill="#3F3D56"/>
<path d="M173.948 155.91H109.551V169.237H173.948V155.91Z" fill="#3F3D56"/>
<path d="M173.948 182.564H109.551V195.891H173.948V182.564Z" fill="#3F3D56"/>
<path d="M173.948 209.218H109.551V222.545H173.948V209.218Z" fill="#3F3D56"/>
<path d="M67.222 201.962H65.6252V265.053H67.222V201.962Z" fill="#3F3D56"/>
<path d="M81.959 210.002C82.0606 232.063 66.5432 250.02 66.5432 250.02C66.5432 250.02 50.861 232.207 50.7593 210.146C50.6577 188.084 66.1751 170.128 66.1751 170.128C66.1751 170.128 81.8573 187.94 81.959 210.002Z" fill="#00ADE5"/>
<path opacity="0.1" d="M81.959 210.002C82.0606 232.063 66.5432 250.02 66.5432 250.02C66.5432 250.02 50.861 232.207 50.7593 210.146C50.6577 188.084 66.1751 170.128 66.1751 170.128C66.1751 170.128 81.8573 187.94 81.959 210.002Z" fill="black"/>
<path d="M46.4631 201.962H44.8662V265.053H46.4631V201.962Z" fill="#3F3D56"/>
<path d="M61.2001 210.002C61.3018 232.063 45.7844 250.02 45.7844 250.02C45.7844 250.02 30.1021 232.207 30.0005 210.146C29.8989 188.084 45.4162 170.128 45.4162 170.128C45.4162 170.128 61.0985 187.94 61.2001 210.002Z" fill="#00ADE5"/>
<path d="M270.884 121.948C258.306 122.006 248.067 122.192 248.067 122.192C248.067 122.192 260.237 106.067 270.839 112.041C281.44 118.015 293.618 121.982 293.618 121.982C293.618 121.982 283.463 121.89 270.884 121.948Z" fill="#F2F2F2"/>
<path d="M61.3169 152.943C48.7383 153.001 38.4998 153.186 38.4998 153.186C38.4998 153.186 50.6698 137.062 61.2712 143.036C71.8726 149.01 84.0509 152.976 84.0509 152.976C84.0509 152.976 73.8955 152.885 61.3169 152.943Z" fill="#F2F2F2"/>
<path d="M106.981 88.2343C94.4027 88.2923 84.1642 88.4782 84.1642 88.4782C84.1642 88.4782 96.3343 72.3535 106.936 78.3276C117.537 84.3017 129.715 88.2682 129.715 88.2682C129.715 88.2682 119.56 88.1763 106.981 88.2343Z" fill="#F2F2F2"/>
<path d="M296.803 201.962H295.206V265.053H296.803V201.962Z" fill="#3F3D56"/>
<path d="M311.54 210.002C311.641 232.063 296.124 250.02 296.124 250.02C296.124 250.02 280.442 232.207 280.34 210.146C280.238 188.084 295.756 170.128 295.756 170.128C295.756 170.128 311.438 187.94 311.54 210.002Z" fill="#00ADE5"/>
<path d="M238.026 225.891H254.141V222H263.032V225.891H279.703V243.123H263.032V264.801H254.141V243.123H238.026L229.69 233.673L238.026 225.891Z" fill="#3F3D56"/>
</svg>
